<?xml version="1.0" standalone="no"?>
<!DOCTYPE svg PUBLIC "-//W3C//DTD SVG 1.1//EN" "http://www.w3.org/Graphics/SVG/1.1/DTD/svg11.dtd" >
<svg>
<metadata>
Created by FontForge 20120731 at Fri Jun 29 16:10:32 2018
 By www
Copyright (c) 2016 by dcoxy Medina Gregory. All rights reserved. 
You have to purchase a license for all commercial use, promotional use and reproduction.
"personal use only" does not constitut public domain or free. 
Thank you to contact me before: dcoxymg@gmail.com
</metadata>
<defs>
<font id="ActionProtocol-Italic" horiz-adv-x="684" >
  <font-face 
    font-family="Action Protocol"
    font-weight="400"
    font-style="italic"
    font-stretch="normal"
    units-per-em="1000"
    panose-1="2 0 0 0 0 0 0 0 0 0"
    ascent="800"
    descent="-200"
    x-height="449"
    cap-height="700"
    bbox="-1397 -363.96 1168 838"
    underline-thickness="50"
    underline-position="-50"
    slope="-12"
    unicode-range="U+0020-2212"
  />
<missing-glyph horiz-adv-x="402" 
 />
    <glyph glyph-name=".notdef" horiz-adv-x="402" 
 />
    <glyph glyph-name=".null" horiz-adv-x="0" 
 />
    <glyph glyph-name="nonmarkingreturn" horiz-adv-x="402" 
 />
    <glyph glyph-name="space" unicode=" " horiz-adv-x="402" 
 />
    <glyph glyph-name="space" unicode="&#xa0;" horiz-adv-x="402" 
 />
    <glyph glyph-name="C" unicode="C" horiz-adv-x="652" 
d="M791 700q-2 -9 -5.5 -25t-9.5 -26h-324q-106 -180 -190 -323q-36 -61 -70.5 -120.5t-62.5 -106.5t-45.5 -77.5t-19.5 -33.5h175h64t56 0.5t40.5 0.5h15.5q-2 -9 -6 -25t-11 -26h-364q-2 1 -6.5 5.5t-10 10.5t-10.5 12.5t-7 12.5q1 1 19.5 32.5t48.5 82.5t68 116t77 132
l210 358h368z" />
    <glyph glyph-name="D" unicode="D" horiz-adv-x="665" 
d="M775 685q14 -14 19 -26q-1 -1 -19 -32.5t-47.5 -81.5t-66.5 -114t-76 -131t-76.5 -131t-67 -114.5t-48.5 -82.5t-20 -34h-429q-6 10 -9.5 26t-5.5 25h71q3 5 20.5 35.5t44.5 76.5t61 103.5t69 117.5t68.5 117t60 102.5t44 74.5t19.5 33h-50q-7 10 -10.5 26t-5.5 25h439z
M342 -12q106 181 190 324q36 61 70.5 120t62 106t45.5 77.5t20 33.5h-284q-5 -8 -24 -40l-47.5 -80t-63 -106.5t-69.5 -118.5q-83 -141 -185 -316h285z" />
    <glyph glyph-name="E" unicode="E" 
d="M447 648q-8 -14 -25.5 -43.5t-42 -70.5t-53.5 -90.5t-59 -101.5h191q-1 -9 -2.5 -24.5t-3.5 -25.5h-215l-178 -305l368 1q-1 -9 -3 -24t-6 -26h-436q-6 10 -9.5 25.5t-5.5 24.5h34l178 303h-7h-6q-2 0 -2 1q-7 10 -10 25.5t-5 24.5h59q1 1 13.5 23t32 54.5t41.5 70.5
t42 71.5t34 57.5t17 29h-48q-7 10 -10.5 26.5t-4.5 25.5h450q-1 -9 -3 -25t-6 -27h-319z" />
    <glyph glyph-name="F" unicode="F" horiz-adv-x="569" 
d="M453 650q-8 -14 -25.5 -43.5t-42 -70.5t-53.5 -90.5t-60 -102.5l192 1q-1 -9 -2.5 -24.5t-4.5 -26.5h-214l-208 -356q-8 6 -19 17.5t-16 23.5l184 315h-22q-6 10 -9.5 26t-5.5 25h67q1 2 14 24t32.5 54.5t41.5 70t41.5 71t33.5 57t17 28.5h-11.5t-15 0.5t-13.5 0.5h-6
q-7 10 -10.5 25.5t-4.5 24.5h448q-1 -9 -3 -24.5t-6 -25.5h-319z" />
    <glyph glyph-name="G" unicode="G" horiz-adv-x="692" 
d="M453 650q-106 -181 -190 -324q-36 -61 -71 -120.5t-62.5 -107t-45.5 -78t-20 -33.5l302 1q3 5 11 18.5t19 32t24 41t27 45.5q32 53 70 118q-35 -1 -63 -1h-67q-6 11 -9.5 26.5t-5.5 24.5h241q-2 -8 -5.5 -24t-10.5 -26h-22q-51 -86 -91 -153q-17 -29 -33 -56t-29 -49
q-15 -26 -28 -48l-361 1q-3 1 -15.5 13.5t-17.5 26.5q1 1 19.5 33t48 82.5t67.5 115t77.5 132t77.5 131.5t67.5 114.5t48 81.5t18.5 32h388q-2 -8 -5.5 -24t-9.5 -26h-344z" />
    <glyph glyph-name="H" unicode="H" horiz-adv-x="683" 
d="M781 700q7 -6 18 -17.5t16 -23.5q-1 -2 -20 -33.5t-49 -82.5t-68 -115.5t-77 -131.5l-210 -358q-7 5 -18.5 17t-16.5 23l156 266l-298 -1l-179 -305q-8 5 -19 17t-16 23l155 265h-43q-7 10 -10 26t-5 25h88q66 112 118 201q22 38 43.5 74.5t38.5 65t27.5 46.5t11.5 19
q8 -6 19 -17.5t16 -23.5q-1 -2 -11 -18t-25.5 -42t-34.5 -58.5t-39 -66.5l-106 -180h298q66 112 119 201q22 38 43.5 74.5t38.5 65t27.5 46.5t11.5 19z" />
    <glyph glyph-name="I" unicode="I" horiz-adv-x="326" 
d="M423 700q7 -6 18 -17.5t16 -23.5l-68 -115l-142 -243l-212 -363q-8 5 -19 17t-16 23l209 359l143 244q30 51 49.5 83t21.5 36z" />
    <glyph glyph-name="J" unicode="J" horiz-adv-x="679" 
d="M872 700q-1 -9 -4.5 -24.5t-10.5 -26.5h-53l-417 -711h-348l-16 12q-7 5 -13.5 10t-10.5 10q1 1 15.5 25.5t35.5 61t45.5 78t46 78t36 61.5t16.5 27q7 -5 19.5 -15t19.5 -18q-1 -1 -9.5 -15.5t-22.5 -38t-31.5 -53.5t-35.5 -60.5t-35 -60t-30 -52.5l289 1
q105 180 189 323q36 61 70.5 120t62 106.5t45.5 77.5t20 34l-259 -1q-7 11 -10.5 26.5t-5.5 24.5h402z" />
    <glyph glyph-name="K" unicode="K" horiz-adv-x="651" 
d="M758 651q-1 -1 -21 -18t-52 -44.5t-73 -62t-83 -70.5q-99 -84 -225 -192q11 -20 27 -50.5t33.5 -64.5t35.5 -68t32.5 -61.5t24 -45.5t10.5 -19q-8 -4 -22.5 -10t-25.5 -8q-1 1 -9.5 17.5t-21.5 41.5t-29.5 56.5t-33 63.5t-32.5 62t-28 53l-119 -102l-111 -191
q-8 6 -19 17.5t-16 22.5q118 201 210 359q39 67 77 132t68 116t48.5 82.5t19.5 32.5q7 -5 18 -17t16 -23l-234 -399q142 122 256 218q48 41 94.5 80.5t83 70.5t59 50t23.5 20q5 -8 11.5 -22.5t7.5 -26.5z" />
    <glyph glyph-name="L" unicode="L" horiz-adv-x="617" 
d="M394 -11q-2 -9 -5.5 -24.5t-10.5 -26.5h-344q-2 1 -6.5 5.5t-10 10.5t-10.5 12.5t-7 12.5q1 1 19.5 33t48 83t67.5 115.5t78 132.5q92 158 211 358q7 -5 18.5 -16.5t16.5 -23.5q-108 -183 -193 -329q-36 -62 -71.5 -122t-64 -108t-46.5 -79t-20 -34h330z" />
    <glyph glyph-name="M" unicode="M" horiz-adv-x="714" 
d="M812 700q1 0 5.5 -5t10 -11t11 -13t7.5 -12q-2 -3 -20.5 -34.5t-48 -81.5t-66.5 -113.5t-76 -129.5t-76.5 -129.5t-67 -114t-48.5 -83t-21 -36.5q-8 6 -19 17.5t-16 23.5q1 2 17.5 29.5t42 71.5t59 100.5t69 117.5t71 121.5t66.5 113.5l-300 -293q-2 0 -8 1.5t-13.5 4
l-15 5t-12.5 5.5q0 1 2 14.5t5 36t7 50.5t8 58q10 69 21 157q-8 -13 -27.5 -47t-47.5 -81t-60.5 -103t-65.5 -112q-77 -132 -170 -291q-7 6 -18.5 17.5t-16.5 23.5l425 722q8 -2 23.5 -6.5t24.5 -9.5q-12 -91 -23 -167q-5 -32 -9.5 -64t-8 -59t-6 -47t-3.5 -27q18 18 45 44
t57.5 56t64 62.5t65.5 63.5q75 73 157 154z" />
    <glyph glyph-name="N" unicode="N" horiz-adv-x="712" 
d="M809 700q8 -6 19 -17.5t16 -23.5q-1 -2 -20 -33.5t-49 -82.5t-68 -115.5t-77 -131.5l-210 -358l-6.5 2t-14.5 5t-16.5 6.5t-12.5 6.5q0 1 2 29t5 72t6.5 100.5t8 114.5t8 114t6.5 100t5 70.5t2 27.5q-8 -13 -28.5 -48t-48.5 -83t-61 -105t-67 -114q-79 -135 -175 -298
q-7 5 -18.5 17t-16.5 23q118 201 211 359q40 67 78 132t68 116t48.5 82.5t19.5 32.5q1 0 7 -1.5t13.5 -4.5t15 -7t12.5 -8q0 -1 -2 -26t-5 -65.5t-6.5 -92.5t-7.5 -107.5t-8 -110.5t-7 -101.5t-5.5 -80.5t-3.5 -47l190 324q36 61 70 119.5t61 104.5t44 74.5t18 29.5z" />
    <glyph glyph-name="O" unicode="O" horiz-adv-x="714" 
d="M809 700q22 -14 35 -40l-423 -722h-386q-8 5 -19 16.5t-16 23.5q118 203 211 361q39 67 77 132t68 115.5t48 82l18 31.5h387zM392 -11q105 180 189 323q36 61 70.5 120t62 106.5t45.5 77.5t20 34l-328 -1l-387 -661z" />
    <glyph glyph-name="P" unicode="P" horiz-adv-x="711" 
d="M807 700q2 -1 7 -5t10.5 -9.5t11 -11.5t8.5 -10q-1 -1 -14 -23t-34 -58t-47.5 -81.5t-54 -92.5t-54 -92.5t-47.5 -81.5t-34 -58t-14 -23h-386l-127 -217q-7 6 -18 17.5t-16 22.5l392 672h-39q-6 10 -9.5 26.5t-5.5 24.5h471zM516 204q65 112 120 204l46 78t42 72t33 57.5
t20 33.5h-328l-261 -445h328z" />
    <glyph glyph-name="Q" unicode="Q" horiz-adv-x="713" 
d="M428 -50l14 -60q-9 -2 -24.5 -4t-26.5 -1l-12 53h-344l-1 -1q-7 6 -18 17.5t-16 23.5l423 721v1h386q7 -6 18 -17.5t16 -23.5zM411 22q100 171 180 307q34 58 67 114t59 100.5t43 73.5t19 32h-328l-387 -661l303 1l-47 202q9 2 24.5 4t26.5 1z" />
    <glyph glyph-name="R" unicode="R" horiz-adv-x="711" 
d="M844 664q-1 -1 -14 -23.5t-34 -58t-47.5 -81.5t-54 -93.5t-54 -93t-47.5 -81t-33.5 -57.5l-12.5 -22h-304q30 -24 67.5 -54.5t71.5 -58t58.5 -47t26.5 -20.5q-6 -7 -17 -18t-19 -17q-2 1 -19.5 14.5t-43.5 35t-57.5 46.5t-61 48.5t-53 42.5t-34.5 28h-3l-127 -217
q-7 6 -18 17.5t-16 23.5q107 181 191 326q36 62 71 122l63 108t46 79t21 36h-49q-6 10 -9.5 26.5t-5.5 24.5h241h240q8 -7 15 -13q6 -5 12.5 -11.5t9.5 -11.5zM516 205q65 112 120 204l46 78t42 72t33 57t20 33h-328l-261 -445z" />
    <glyph glyph-name="S" unicode="S" horiz-adv-x="683" 
d="M773 700q-2 -8 -5.5 -24t-9.5 -26h-304q-4 -6 -15 -25t-26.5 -45t-34 -57.5t-37.5 -63.5q-44 -75 -97 -166l306 1q9 -6 17 -12q7 -5 13 -10.5t10 -9.5l-190 -323q-107 -1 -191 -1h-194q-6 10 -9.5 26t-5.5 25h372l148 254h-305q-9 6 -16 13q-6 5 -12.5 11.5t-9.5 11.5
l248 421h348z" />
    <glyph glyph-name="T" unicode="T" horiz-adv-x="328" 
d="M704 700q-1 -9 -3.5 -24.5t-7.5 -26.5h-241l-417 -712q-8 5 -19 17t-16 23q107 183 192 329q36 62 71.5 122t63.5 108t46 78.5t20 34.5h-244q0 4 1 12t2.5 16.5t3 14.5t4.5 8h544z" />
    <glyph glyph-name="U" unicode="U" horiz-adv-x="713" 
d="M809 700q7 -5 18 -17t16 -23l-423 -722h-386q-8 7 -15 14q-6 6 -12 13t-8 13q118 201 210 359q39 67 77 132t68 116t48.5 82.5t19.5 32.5q7 -6 18 -17.5t16 -23.5l-393 -671l329 1q115 198 207 354q39 66 76.5 130t67 114t47.5 81t19 32z" />
    <glyph glyph-name="V" unicode="V" horiz-adv-x="422" 
d="M552 703q6 -7 15.5 -20t13.5 -25q-1 -1 -24.5 -33t-61 -82.5t-85 -115t-97 -132t-97 -131.5t-84.5 -114.5t-60 -81l-23 -30.5q-9 2 -24.5 8t-24.5 14q0 3 5 35.5t13 84t18 116t20 132.5t20 133l18 117t13 85t5 37q9 -2 24 -8t24 -14q0 -3 -5.5 -37.5t-13.5 -88
t-18.5 -121.5t-21 -137.5t-20.5 -135.5t-18 -116q31 42 78.5 106t100.5 136.5t107 145t98 132t72.5 98.5t32.5 43z" />
    <glyph glyph-name="W" unicode="W" horiz-adv-x="713" 
d="M809 700q8 -6 19 -17.5t16 -23.5l-424 -722q-9 2 -24 6.5t-25 9.5q12 91 23 167q4 32 9 64t8.5 59t6.5 46.5t4 27.5l-390 -380l-4.5 5t-10.5 11t-11 13t-7 12q1 1 19.5 33t48 83t67.5 115.5t78 132.5q92 158 211 358q7 -6 18 -17.5t16 -23.5l-324 -553l299 292l6 -1.5
t14 -4l16 -5t13 -5.5q0 -1 -2 -15t-5 -36.5t-7 -51t-8 -57.5q-10 -70 -21 -156q7 13 27 47t48 81t60.5 103t65.5 112q77 132 170 291z" />
    <glyph glyph-name="X" unicode="X" horiz-adv-x="564" 
d="M773 655q-3 -3 -37.5 -36.5t-89.5 -86.5t-124.5 -119t-140.5 -134q-10 -64 -19 -124t-16.5 -107t-12 -77t-4.5 -33q-8 2 -23 8t-24 14q0 2 3 24t8.5 57.5t12.5 82t15 98.5q-58 -56 -111 -107t-94.5 -90.5t-67 -64t-28.5 -27.5q-5 8 -12.5 22.5t-7.5 28.5q3 3 31.5 30
t74.5 71t105 100.5t123 117.5q11 71 21.5 140.5t19 125t14 91.5t5.5 40q8 -2 23.5 -8t24.5 -14q0 -3 -4.5 -30t-11 -70.5t-15 -99.5t-17.5 -117q66 63 129.5 123.5t113 108.5t81.5 78.5t35 33.5q5 -7 12 -21.5t8 -28.5z" />
    <glyph glyph-name="Y" unicode="Y" horiz-adv-x="585" 
d="M681 701q7 -5 19 -16t17 -21l-144 -248q-27 -47 -53.5 -92t-47.5 -80.5t-34 -58t-14 -24.5h-188l-130 -223q-8 5 -20.5 14t-20.5 16l112 193h-139l-5 3.5t-11 9t-12.5 11.5t-9.5 11q1 1 13.5 23t33.5 57.5t47 80.5t53.5 92t54 92t47 80t33.5 57t13 23q7 -6 19 -16.5
t18 -20.5q-67 -114 -122 -208q-24 -40 -47 -80t-42.5 -73.5t-34 -58t-19.5 -33.5h328q4 7 18.5 31.5t35 60t45.5 78.5t51 87t50 86t43 74t30.5 52t12.5 21z" />
    <glyph glyph-name="Z" unicode="Z" horiz-adv-x="661" 
d="M438 -12q-1 -9 -4.5 -24.5t-10.5 -25.5h-18t-46.5 -0.5t-64.5 -0.5h-74h-202q-2 1 -5 7t-6 14t-5 17t-2 16q2 2 28 25t67.5 60t95.5 86t114 102.5t122.5 109t119.5 106.5t106 95t83 74q-94 -1 -168 -1h-171q-6 11 -9.5 26.5t-5.5 24.5h410q1 -1 4 -6.5t6 -13t5.5 -16
t2.5 -15.5q-2 -2 -28 -25t-68 -60.5t-96.5 -86.5t-114.5 -103t-122.5 -109.5t-120 -107t-106.5 -95t-82 -73.5h366z" />
    <glyph glyph-name="OE" unicode="&#x152;" horiz-adv-x="1076" 
d="M840 650q-8 -14 -25.5 -43.5t-42 -71t-53.5 -91t-59 -101.5l191 1q-1 -9 -2.5 -24.5t-3.5 -26.5h-215l-178 -304h368q-1 -9 -3 -24.5t-6 -25.5h-776v-1q-8 6 -19 17.5t-16 22.5l423 722h745q-1 -8 -2.5 -24t-6.5 -26h-319zM600 344q33 56 63.5 109t55.5 95t41 69.5
t19 32.5h-327l-388 -661h158h59t53 0.5t40 0.5h19q2 3 17.5 29.5t40 68.5t55.5 95t64 110h-13q-6 10 -9.5 26t-5.5 25h58z" />
    <glyph glyph-name="AE" unicode="&#xc6;" horiz-adv-x="1047" 
d="M811 649q-8 -13 -26 -43t-42 -71t-53 -90.5t-60 -101.5h192q-1 -8 -2.5 -24t-4.5 -26h-214l-178 -305l368 1q-1 -9 -3 -24.5t-6 -26.5h-436q-7 11 -10.5 27t-4.5 24h32l149 254h-298l-179 -306q-8 6 -19 17.5t-16 22.5l155 265h-35q-6 11 -9.5 26.5t-5.5 24.5h80
q55 93 100 169q19 32 37.5 63.5t33.5 57.5t25 43.5t13 22.5h-37q-7 10 -10.5 26t-5.5 25h798q-1 -9 -3 -24.5t-6 -25.5zM570 343q21 35 50 84.5t56.5 96.5t48.5 82.5t25 42.5h-153q-64 0 -144 1q-5 -8 -16 -27t-26.5 -45.5t-34 -58t-37.5 -62.5q-44 -74 -96 -164h284
q-6 11 -9.5 26.5t-5.5 23.5h58z" />
    <glyph glyph-name="Ccedilla" unicode="&#xc7;" horiz-adv-x="652" 
d="M788 700q0 -9 -2 -24.5t-5 -25.5h-329q-106 -181 -190 -324q-36 -61 -70.5 -120t-62.5 -106t-45.5 -77.5t-19.5 -33.5h338q-1 -9 -2.5 -25t-4.5 -26h-178l-72 -82q-7 6 -18 16.5t-18 18.5l41 47h-116q-2 1 -6.5 5.5t-10 10.5t-10.5 13t-7 13q1 1 19.5 32.5t48.5 82.5
t68 115.5t77 131.5l210 358h365v0z" />
    <glyph glyph-name="germandbls" unicode="&#xdf;" horiz-adv-x="704" 
d="M605 268l-6 -0.5t-14 -1t-15.5 -1t-10.5 -0.5q4 -2 16 -10t16 -11l-180 -306l-326 -1q1 9 2.5 24.5t4.5 26.5h290l149 254h-306l-218 -375q-8 6 -18.5 18t-15.5 24q117 200 210 360q40 68 78.5 134t69.5 119t51 87t23 39q-9 0 -16 0.5t-9 0.5q-6 10 -9.5 26t-5.5 25h434
h1q7 -6 18 -18t16 -23zM560 293q55 94 100 171q19 33 37.5 64.5t33.5 57t25.5 42.5t12.5 21h-305q-8 -14 -28.5 -48.5t-48.5 -82.5t-62 -106.5t-70 -119.5z" />
    <glyph glyph-name="a" unicode="a" horiz-adv-x="579" 
d="M540 451q8 -7 16 -13q6 -5 12.5 -11t9.5 -10l-244 -417h-294h-1q-8 5 -20 14.5t-19 17.5q49 85 88 151q16 28 32 55t29 48t20.5 34.5l7.5 13.5h294l39 67h-133h-49.5h-43.5h-31h-13q-7 10 -10 25.5t-5 24.5h315zM442 284h-235l-138 -234h236z" />
    <glyph glyph-name="b" unicode="b" horiz-adv-x="577" 
d="M537 451l5 -3.5t11.5 -9t13 -11.5t9.5 -10q-1 -2 -12 -20.5t-28 -48.5t-39 -67t-45 -76q-54 -91 -121 -205h-293l-2 -3q-7 5 -19 16t-17 22l179 306l90 153q17 29 33 56.5t29 49.5t21 35.5t9 14.5q7 -6 19 -17t17 -22q-1 -2 -8.5 -14.5t-20.5 -33.5t-30 -50t-36 -62h235z
M302 50q8 15 23 40t33.5 56t39 66t40.5 69t38 64.5t32 54.5h-236q-14 -23 -27.5 -46.5t-27.5 -47.5l-150 -256h235z" />
    <glyph glyph-name="c" unicode="c" horiz-adv-x="536" 
d="M535 451q-1 -9 -4.5 -24.5t-10.5 -26.5h-246q-12 -21 -38 -65t-56 -95.5t-60.5 -102.5t-51.5 -87h265q-2 -8 -5 -24t-10 -26h-280q-9 6 -16 12q-15 12 -22 22q1 1 11.5 19.5t27.5 47.5t38.5 65.5t44 74.5t44 74.5t39 66t28.5 48.5t12 21h290z" />
    <glyph glyph-name="d" unicode="d" horiz-adv-x="588" 
d="M657 650q7 -6 18.5 -17t16.5 -22q-2 -2 -20.5 -33.5t-60.5 -103t-110.5 -188.5t-169.5 -289l-3 3h-290q-8 5 -19.5 15t-18.5 19q1 2 19.5 33t45 76t57.5 98t58 98.5t45 77t20 34.5h293v-1q34 58 56.5 96t36 60.5t19.5 32t7 11.5zM474 341l35 59h-234q-12 -21 -38 -64.5
t-56.5 -95.5t-60.5 -103t-51 -87h235z" />
    <glyph glyph-name="e" unicode="e" horiz-adv-x="580" 
d="M539 451l16 -12q7 -5 13.5 -10.5t10.5 -9.5l-161 -274l-3 3h-289q-17 -28 -31.5 -53t-26.5 -45h132h134q-2 -8 -5.5 -24t-9.5 -26h-280l-16 12q-7 5 -13.5 11t-9.5 11q1 1 12 20t28.5 48.5t39 66.5t44.5 76t44.5 76t38 65.5t27 46.5l10.5 18h295zM509 401h-235
q-7 -13 -19.5 -34.5t-28.5 -48.5t-34.5 -58t-36.5 -62h235z" />
    <glyph glyph-name="g" unicode="g" horiz-adv-x="575" 
d="M539 451q8 -6 19.5 -16.5t16.5 -20.5l-327 -556q-3 3 -5 4h-272q-7 10 -10.5 26t-5.5 25h267l52 87h-235h-1v1q-8 5 -19.5 15t-18.5 18q1 1 12 20t28.5 48.5t39 66.5t44.5 75.5t44.5 75.5t38.5 66t27.5 47l10.5 18h294zM509 401h-235q-8 -14 -22.5 -39t-32.5 -56t-39 -66
t-41 -69t-38.5 -65.5t-32.5 -54.5h235z" />
    <glyph glyph-name="h" unicode="h" horiz-adv-x="576" 
d="M537 454q8 -5 20 -15t19 -19q-1 -2 -12 -20t-28 -47t-38.5 -65.5t-44 -75t-44 -75t-39 -66t-28.5 -48t-12 -20.5q-7 5 -19 15t-19 19q1 1 13 21.5t30.5 52t41.5 71t47 79.5t46 77.5t38 64.5h-236q-14 -23 -27.5 -46.5t-27.5 -47.5l-181 -309q-8 5 -19.5 16t-16.5 22
l178 306l122 208q26 43 42.5 70.5t18.5 30.5q7 -6 18.5 -17t17.5 -22q-1 -2 -9 -14.5t-20.5 -33.5t-29.5 -50t-37 -62h236v0z" />
    <glyph glyph-name="i" unicode="i" horiz-adv-x="284" 
d="M246 451q7 -5 19.5 -15t18.5 -19q-1 -2 -19 -33t-45 -76.5t-58 -98t-58 -98t-45.5 -77t-19.5 -34.5q-8 5 -20 15t-19 19q1 2 19.5 33t45 76.5t58 98t58.5 98t45 77t20 34.5z" />
    <glyph glyph-name="j" unicode="j" horiz-adv-x="283" 
d="M246 454q8 -5 19.5 -16t17.5 -21l-327 -556q-2 1 -3 2t-3 2h-148q-6 10 -9.5 26t-5.5 25h143l316 538v0z" />
    <glyph glyph-name="k" unicode="k" horiz-adv-x="577" 
d="M432 176l-1 1h-181q14 -18 33 -43.5t36 -48.5t29.5 -39t13.5 -17q-7 -5 -20 -14t-22 -14q-1 1 -11.5 14t-25.5 32.5t-32 42t-31.5 42t-24 32.5l-9.5 13h-47l-103 -177q-7 6 -19 16.5t-17 21.5l179 306l122 208q26 44 42 71t18 30q8 -5 19.5 -16t16.5 -22
q-1 -2 -8.5 -14.5t-20.5 -34t-30 -50.5t-36 -62h235h1q8 -5 20 -13.5t20 -16.5zM169 227h235l104 177h-236q-14 -23 -27.5 -46.5t-27.5 -47.5z" />
    <glyph glyph-name="l" unicode="l" horiz-adv-x="478" 
d="M319 51q-2 -9 -5 -25t-10 -26h-267l-2 -3q-8 6 -19.5 16.5t-16.5 21.5l179 306l122 208q26 44 42 71t18 30q8 -5 19.5 -16t16.5 -22q-2 -2 -18 -29t-41 -69.5t-56.5 -96.5t-64.5 -110l-150 -256h253z" />
    <glyph glyph-name="m" unicode="m" horiz-adv-x="784" 
d="M746 451q7 -5 19.5 -15t18.5 -19q-1 -2 -19 -33t-45 -76.5t-58 -98t-58 -98t-45.5 -77t-19.5 -34.5q-8 5 -20 15t-19 19q1 1 13 21.5t30.5 52t42 70.5t47 79.5t45.5 77.5t38 65h-185q-11 -19 -32.5 -55.5t-47.5 -80t-53 -89.5t-49.5 -84t-37.5 -63.5t-16 -27.5
q-8 5 -20 15t-19 19q1 1 13 21.5t30.5 52t42 70.5t47 79.5t45.5 77.5t38 65h-198l-236 -403q-8 5 -20 15t-18 19l257 439q4 -3 10.5 -8.5t13.5 -10.5h217q2 -4 5 -10.5t7 -14.5q3 5 6.5 12t7.5 13h222v0z" />
    <glyph glyph-name="n" unicode="n" horiz-adv-x="578" 
d="M539 451q8 -5 20 -15t19 -19q-1 -2 -12 -20t-28 -47t-38.5 -65.5t-44 -75t-44 -75t-39 -66t-28.5 -48t-12 -20.5q-8 5 -20 15t-18 19q1 1 12.5 21.5t30 52t42 70.5t47.5 79.5t46 77.5t38 65h-237l-236 -403q-7 5 -19 15t-19 19l257 439q5 -3 11 -8.5t13 -10.5h259v0z" />
    <glyph glyph-name="o" unicode="o" horiz-adv-x="575" 
d="M536 451q9 -7 16 -13q6 -5 12 -11l10 -10q-68 -117 -122 -209q-23 -39 -45 -76.5t-39 -66.5q-20 -34 -39 -65h-294q-8 6 -20 16t-18 18q1 2 19.5 33.5t46 78t58.5 100t58 99t45 76l18 30.5h294zM506 401h-235q-12 -21 -38 -65t-56 -96t-60.5 -103t-51.5 -87l235 1z" />
    <glyph glyph-name="p" unicode="p" horiz-adv-x="599" 
d="M561 451q8 -7 16 -13q6 -5 12.5 -10.5t9.5 -10.5q-1 -2 -12 -20.5t-28 -48.5t-39 -67t-45 -76q-54 -91 -121 -205h-294v1l-113 -191q-7 5 -18.5 16t-17.5 22l355 603h295zM325 51l39 66t56.5 95.5t60 102.5t50.5 86h-236l-206 -350h236z" />
    <glyph glyph-name="q" unicode="q" horiz-adv-x="573" 
d="M537 451q8 -6 19.5 -16.5t16.5 -21.5l-355 -603q-7 5 -19 16t-17 22l90 152h-236q-9 7 -16 13q-6 5 -12.5 10.5t-9.5 10.5q1 1 12 20t28.5 48.5t39 66.5t44.5 75.5t44.5 75.5t38.5 66t27.5 47l10.5 18h294zM507 401h-235q-8 -14 -22.5 -39t-32.5 -56t-39 -66t-41 -69
t-38.5 -65.5t-32.5 -54.5h235z" />
    <glyph glyph-name="r" unicode="r" horiz-adv-x="583" 
d="M539 453q9 -7 17 -12q7 -5 13.5 -10t10.5 -9l-146 -248q-1 0 -1 0.5t-1 0.5h-180q14 -18 32.5 -43t36 -48t30 -39.5t13.5 -17.5q-8 -5 -20.5 -14t-21.5 -14q-1 1 -11.5 14t-25 32.5t-31.5 42t-31.5 41.5t-24.5 32t-11 14h-46l-103 -176q-8 5 -20 15t-19 19
q69 117 124 209q23 39 45 77t39.5 67.5t27.5 47.5l10 18zM509 402h-235l-103 -176h235z" />
    <glyph glyph-name="s" unicode="s" horiz-adv-x="544" 
d="M544 451q-2 -9 -5.5 -24.5t-9.5 -26.5h-289l-76 -128h235q9 -6 17 -11q7 -5 13.5 -10t10.5 -8l-142 -243h-283q-6 10 -9.5 26t-5.5 24h269l100 171h-242q-8 4 -15 8l-12 8t-10 8l121 206h333z" />
    <glyph glyph-name="t" unicode="t" horiz-adv-x="271" 
d="M480 549q-2 -8 -5.5 -24t-10.5 -26h-136q-6 -10 -21.5 -37t-37.5 -64t-47.5 -81t-51.5 -88q-61 -104 -134 -229q-7 5 -19 16t-17 22l270 461h-112q-7 10 -10 25.5t-5 24.5h156q17 27 30 50q11 19 21 35.5t11 18.5q8 -6 19.5 -17t16.5 -22q-2 -2 -12 -19t-27 -46h122z" />
    <glyph glyph-name="u" unicode="u" horiz-adv-x="581" 
d="M541 449q8 -5 20 -15t19 -19q-1 -2 -19 -33t-44.5 -76t-57.5 -97.5t-58 -98t-45.5 -76.5t-19.5 -34h-298q-9 7 -16 13q-7 5 -13 10.5t-9 10.5q1 1 11.5 19.5t27.5 47t38.5 65t44 74.5t44 75t38.5 66t28 47.5t12 20.5q8 -5 20 -15t19 -19q-1 -1 -13 -21t-30.5 -51.5
t-41.5 -71t-46.5 -79.5t-45.5 -77.5t-38 -64.5h239q11 19 32.5 55.5t47 79.5t52.5 89t49 84t37 63t16 28z" />
    <glyph glyph-name="v" unicode="v" horiz-adv-x="556" 
d="M594 451q-2 -9 -5.5 -24.5t-10.5 -26.5h-37q-11 -19 -32.5 -56t-47.5 -81t-53.5 -90.5t-50 -84.5t-37 -63l-14.5 -25h-268q-9 6 -16 12q-6 5 -12.5 11t-9.5 11q1 1 11.5 19.5t27.5 47t38.5 65t44 74.5t44 75t38.5 66t28 47.5t12 20.5q8 -5 20 -15t19 -19q-1 -1 -12.5 -21
t-30 -51.5t-41.5 -71t-47 -79.5t-46 -77.5t-38 -64.5h209q8 14 22.5 38.5t32.5 55.5t38.5 66t40.5 69q47 80 101 172h82v0z" />
    <glyph glyph-name="w" unicode="w" horiz-adv-x="788" 
d="M821 451q-2 -9 -5.5 -24.5t-10.5 -25.5h-36q-1 -2 -11.5 -19.5t-27 -46t-37.5 -64.5t-43 -73l-116 -198h-500q-8 5 -20 15t-18 19q1 1 11.5 19.5t27.5 47.5t38.5 65.5t44 75t44 75t39 66t28.5 48t12 20.5q8 -5 20 -15t18 -19q-1 -2 -12.5 -22t-30 -51.5t-42 -71t-47 -80
t-45.5 -78t-38 -64.5l185 1q11 19 32.5 55.5t47.5 80t53 89.5t49.5 84t37 63t16.5 28q8 -5 20 -15t19 -19q-1 -2 -13 -22t-30.5 -51.5t-42 -71t-47 -80t-45.5 -78t-38 -64.5l198 1l234 400h81v0z" />
    <glyph glyph-name="x" unicode="x" horiz-adv-x="667" 
d="M666 451q-1 -9 -4.5 -24.5t-10.5 -25.5h-185q-12 -21 -38 -65t-56 -95.5l-60 -103t-51 -86.5h159l16 26q7 -5 18.5 -16t17.5 -22l-23 -39h-231q0 2 -0.5 11t-0.5 13q-4 -5 -10.5 -12.5t-9.5 -11.5h-182q-7 9 -10 25t-5 24l195 1q12 21 38 65t56.5 96t61 103t51.5 87h-161
l-15 -27q-8 5 -19.5 16t-16.5 22l23 39h219l4 -16q2 -6 3 -11.5t2 -7.5q1 2 5.5 7t10 10.5t10 10.5t6.5 7h193z" />
    <glyph glyph-name="y" unicode="y" horiz-adv-x="573" 
d="M246 -143q-3 3 -6 5h-289q1 8 2.5 24t3.5 26h263l52 88h-236q-9 6 -16 12q-15 12 -22 22q1 2 19.5 32.5t45 76t57 97.5t57.5 97.5t45 77t20 34.5q8 -5 20 -15t18 -19q-1 -2 -12.5 -22t-30 -51.5t-41.5 -71t-46.5 -79t-45.5 -77t-38 -64.5h235l235 400q8 -5 19.5 -15.5
t17.5 -21.5z" />
    <glyph glyph-name="z" unicode="z" horiz-adv-x="523" 
d="M308 51q-2 -9 -5.5 -25t-9.5 -26h-293q1 9 2.5 24t3.5 26v1q1 1 30.5 24.5t73.5 59t96 78t99.5 81t84 68t48.5 39.5q-64 -1 -114 -1h-116q-7 11 -10.5 26.5t-5.5 24.5h307l2 2q5 -8 12.5 -22t9.5 -25q-1 -1 -19.5 -16.5t-49 -40t-69.5 -56t-79 -64.5t-79 -64.5
t-69.5 -56.5t-50 -40.5t-20.5 -16.5h221z" />
    <glyph glyph-name="oe" unicode="&#x153;" horiz-adv-x="874" 
d="M833 451q8 -7 16 -12q7 -5 13 -10t10 -9l-161 -274q-1 0 -3 2h-289q-17 -28 -31.5 -53t-25.5 -45h135h49.5t44 0.5t31.5 0.5h12q-2 -9 -5.5 -25t-9.5 -26h-287h-1h-292h-1q-9 7 -16 13q-6 5 -12.5 10.5t-9.5 10.5q1 2 19.5 33t45 76.5t57.5 98t58 98t45 77t20 34.5h294
h294zM509 401h-235q-12 -21 -38 -65t-56 -96t-60.5 -103t-51.5 -87l235 1zM803 401h-235q-8 -13 -20.5 -34.5t-28 -48.5t-34 -58t-36.5 -62h235z" />
    <glyph glyph-name="ae" unicode="&#xe6;" horiz-adv-x="874" 
d="M833 451l4.5 -3.5t11 -8.5t13.5 -10.5t10 -8.5l-161 -274q-1 0 -3 2h-289q-17 -28 -31.5 -53t-25.5 -45h137h50.5t44 0.5t32 0.5h12.5q-2 -9 -5.5 -25t-10.5 -26h-584l-16 12q-7 5 -13.5 10.5t-9.5 9.5q49 85 88 151q16 28 32 55t29 48t20.5 34.5l7.5 13.5h294l39 67
h-265q-7 10 -10 25.5t-5 24.5h604zM440 284h-235l-137 -234h235l2 4zM803 401h-235q-8 -13 -20.5 -34.5t-28 -48.5t-34 -58t-36.5 -62h235z" />
    <glyph glyph-name="ccedilla" unicode="&#xe7;" horiz-adv-x="536" 
d="M274 401q-12 -21 -38 -65t-56 -95.5t-60.5 -102.5t-51.5 -87h273q-1 -9 -4.5 -25t-10.5 -26h-112l-69 -77q-6 6 -17.5 16.5t-18.5 18.5l38 42h-109q-9 7 -16 13q-7 5 -13 10.5t-9 10.5q1 1 12 20t28.5 49t39 67t44.5 76q53 91 120 205h147h53.5t47.5 0.5t34 0.5h13
q-2 -9 -5.5 -25t-10.5 -26h-249v0z" />
    <glyph glyph-name="exclam" unicode="!" horiz-adv-x="399" 
d="M360 649q7 -5 19 -15.5t18 -20.5q-2 -2 -15.5 -24.5t-35 -58.5t-48 -81.5t-54.5 -92.5l-153 -262q-7 5 -19 15.5t-18 20.5l151 259q28 48 55 93.5t48.5 82t35.5 59.5t16 25zM79 77l-44 -77q-7 5 -18.5 16t-17.5 22l23 39h57z" />
    <glyph glyph-name="mu" unicode="&#xb5;" horiz-adv-x="599" 
d="M598 414q-1 -2 -19 -33t-44.5 -76t-57.5 -97.5t-57.5 -98t-45 -76.5t-20.5 -34h-152h-145q-13 -22 -20.5 -35t-9.5 -15q-7 5 -19 15.5t-19 19.5q1 2 13 22t31 52.5t43 73t49.5 83t49.5 83.5t43 73.5t31 53.5t13 23q8 -5 20 -15.5t18 -19.5q-1 -2 -11.5 -20t-27.5 -47.5
t-39 -66.5t-45.5 -77t-47 -79.5t-43.5 -73.5h239q11 19 32.5 55.5t47.5 79.5t52.5 89t49 84t37.5 63t16 28q8 -5 20 -15t18 -19z" />
    <glyph glyph-name="question" unicode="?" horiz-adv-x="698" 
d="M678 661q-1 -9 -2.5 -24.5t-4.5 -26.5h-5q-5 -8 -15.5 -25.5t-24.5 -41.5t-31 -52.5t-34 -58.5l-109 -186h-130l-88 -152q-8 5 -21 13.5t-21 15.5l102 173l128 1l98 167q25 42 48.5 81t39.5 66h-97h-128l-117 -205q-7 6 -18.5 16.5t-17.5 21.5q34 58 61 105
q12 20 23 39.5t20.5 35t15.5 26t7 12.5h159h58.5t51 -0.5t36.5 -0.5h16zM222 77l-44 -77q-7 5 -19 16t-17 22l23 39h57z" />
    <glyph glyph-name="quotedbl" unicode="&#x22;" horiz-adv-x="224" 
d="M120 690q14 2 29 1.5t26 -6.5l-20 -131q-5 0 -16.5 0.5t-17.5 0.5zM51 688q11 5 26 5t28 -3l-6 -135q-5 0 -16.5 0.5t-17.5 0.5z" />
    <glyph glyph-name="numbersign" unicode="#" horiz-adv-x="486" 
d="M425 486q-1 1 -22 11.5l-53 26.5q-5 -11 -11 -23l-12 -24q33 -17 56 -28t25 -13l-11 -16.5t-13 -16.5l-23 11.5t-52 26.5q-17 -33 -28.5 -56l-12.5 -25l-16.5 11t-16.5 13q0 2 11 23t27 52l-24 12t-23 12q-17 -33 -28.5 -56.5t-12.5 -25.5l-16.5 11t-16.5 13l38 76
q-33 17 -56 28t-25 12q4 7 10.5 17.5t12.5 16.5l76 -38q6 11 12 23t11 24q-33 17 -56 28t-25 12q4 7 10.5 17.5t13.5 16.5l76 -38q17 32 28 55t12 25q6 -3 16.5 -10t16.5 -13q0 -2 -10.5 -23t-26.5 -52q11 -6 23 -12t23 -12q17 33 28.5 56l12.5 25q6 -3 16.5 -10t16.5 -13
l-38 -76q33 -17 56 -28t25 -13l-11 -16.5t-13 -16.5zM291 495q5 12 11 24t12 23q-23 12 -46 23q-6 -11 -12 -23t-12 -23q12 -6 23.5 -12t23.5 -12z" />
    <glyph glyph-name="dollar" unicode="$" horiz-adv-x="302" 
d="M325 586q-1 -4 -1 -10t-2 -10h-51q-3 -5 -6.5 -11t-7.5 -13l-70 -121l-1 -1h50h1q2 -2 6 -5q2 -2 5 -4t5 -4l-77 -132q-1 0 -1 1h-72l-21 -36q-2 3 -6.5 8t-6.5 10l10 17h-67q0 4 0.5 10t2.5 11h76l60 104h-51q-3 2 -6 5q-2 2 -5 4.5t-4 4.5l49 86q9 14 17.5 28.5
t15.5 26.5t12 20.5t6 10.5h74q8 14 13 22t6 9q3 -2 7 -7t6 -10q0 -1 -8 -14h42zM175 400l-60 -104h49l60 104h-49zM243 558l2 4l2 4h-50q-6 -11 -19 -32.5t-27 -46.5l-39 -67h51l9 17z" />
    <glyph glyph-name="Euro" unicode="&#x20ac;" horiz-adv-x="371" 
d="M211 553l-64 -108h86q-1 -4 -1.5 -10t-1.5 -11h-95l-8 -13v-1h80q-1 -4 -1.5 -10t-1.5 -11h-89l-46 -77q-10 -18 -17 -28h138q0 -4 -0.5 -10t-2.5 -11h-147l-7.5 7.5t-6.5 9.5q2 2 20.5 33.5t44.5 75.5h-36q0 4 0.5 10t2.5 11h45q5 7 8 14h-30q0 4 0.5 10t2.5 11h39
l76 128v1h149q-1 -4 -1.5 -10t-1.5 -11h-134z" />
    <glyph glyph-name="cent" unicode="&#xa2;" horiz-adv-x="257" 
d="M202 594h34q-1 -4 -1 -10t-2 -10h-43l-40 -68l-44 -75h47q0 -4 -0.5 -10t-1.5 -11h-57l-31 -53q-3 2 -7.5 7t-6.5 10l21 36h-38q-4 2 -7 5q-3 2 -5 4.5t-4 4.5q1 2 16.5 28t34.5 58q22 37 49 84h62l15 26q12 20 19.5 33t9.5 15q2 -2 7 -6.5t7 -9.5l-28 -47zM166 574h-38
q-5 -9 -15.5 -27t-23 -39t-24.5 -41.5t-21 -35.5h38l53 89z" />
    <glyph glyph-name="sterling" unicode="&#xa3;" horiz-adv-x="287" 
d="M267 554q1 -5 1 -9v-8q0 -8 -1.5 -14.5t-3.5 -11.5q-3 -10 -5.5 -15.5t-3.5 -7.5q-3 3 -8 7.5t-7 9.5q3 3 7 20q1 4 1.5 9t-0.5 10q0 12 -8 17q-6 2 -10 1q-7 0 -14 -3q-14 -8 -27 -21l-12 -15q-2 -2 -2.5 -4t-2.5 -4l-3 -4l-3 -5q-5 -8 -10.5 -17t-10.5 -18
q-10 -16 -19 -31t-17 -30h38q0 -4 -0.5 -10t-1.5 -11l-48 1q-8 -15 -16 -28.5t-15 -25.5q-8 -14 -14.5 -25.5t-11.5 -19.5h138q-1 -4 -1.5 -10t-1.5 -11h-148q-2 3 -5 7q-6 8 -7 12q1 2 11 19t26 45q5 8 10.5 17.5t10.5 19.5h-39q0 4 0.5 10t1.5 11h49q11 18 22.5 37
t23.5 39q5 9 10.5 18t11.5 18q10 19 27 34q8 8 16 14t19 9q11 5 23 3t20 -11q5 -5 6.5 -9t3.5 -9z" />
    <glyph glyph-name="percent" unicode="%" horiz-adv-x="524" 
d="M396 518q7 -6 19 -16.5t18 -19.5q-1 -2 -13.5 -23t-32 -54.5t-44.5 -76t-51 -86.5l-142 -243q-8 5 -20 15.5t-18 19.5l140 241q26 44 51 86.5t45.5 76.5t33 55.5t14.5 24.5zM197 268h-131v122h131v-122zM155 351h-47v-44h47v44zM483 269v-122h-131v122h131zM441 230h-47
v-44h47v44z" />
    <glyph glyph-name="perthousand" unicode="&#x2030;" horiz-adv-x="629" 
d="M399 517q8 -5 19.5 -15.5t17.5 -20.5q-1 -2 -13.5 -22.5t-32 -54t-44.5 -76t-51 -86.5l-142 -243q-8 5 -20 15t-18 20l141 241q25 44 50 86.5t45.5 76.5t33 55.5t14.5 23.5zM200 268h-131v122h131v-122zM158 351h-47v-44h47v44zM575 269v-122h-89h-42h-89v122h89h42h89z
M444 230h-47v-44h47v44zM533 230h-47v-44h47v44z" />
    <glyph glyph-name="ampersand" unicode="&#x26;" horiz-adv-x="600" 
d="M621 653q5 -8 14 -21.5t11 -25.5q-23 -25 -55.5 -59t-69.5 -70.5l-74 -73t-69 -67.5q0 -9 0.5 -22t1 -42t1.5 -81t3 -140h31q-1 -9 -3 -24.5t-5 -26.5h-22l1 -79l-7 2t-16 4t-17 4t-11 4l-1 65h-334q1 8 2.5 22.5t3.5 28.5q1 1 15 14t37.5 35.5t55 52t67 63t73 69.5
t73.5 71q-1 43 -2.5 91t-3.5 90.5t-3.5 73.5t-2.5 40h304zM333 51q-2 84 -2.5 131t-1 69.5t-0.5 28.5v8q-73 -71 -139.5 -134t-109.5 -103h253zM377 405q95 94 195 195h-118t-60 -0.5t-21.5 -1t-1.5 -0.5q0 -2 0.5 -17.5t1.5 -41.5t2 -60.5t2 -73.5z" />
    <glyph glyph-name="quotesingle" unicode="'" horiz-adv-x="316" 
d="M268 685l10 -7.5t12.5 -9.5t12 -10.5t8.5 -10.5l-76 -94q-4 0 -17.5 -0.5t-19.5 -0.5l70 133v0z" />
    <glyph glyph-name="quoteright" unicode="&#x2019;" horiz-adv-x="391" 
d="M322 685l10 -7.5t12.5 -9.5t12 -10.5t8.5 -10.5l-76 -94q-4 0 -17.5 -0.5t-19.5 -0.5l70 133v0z" />
    <glyph glyph-name="quoteleft" unicode="&#x2018;" horiz-adv-x="318" 
d="M243 555q-4 3 -10 7t-12.5 9.5t-12 11t-8.5 10.5l76 94q4 0 17.5 0.5t19.5 0.5l-70 -133v0z" />
    <glyph glyph-name="quotedblright" unicode="&#x201d;" horiz-adv-x="484" 
d="M332 685l10 -7.5t12.5 -9.5t12 -10.5t8.5 -10.5l-76 -94q-4 0 -17.5 -0.5t-19.5 -0.5zM419 685l10 -7.5t12.5 -9.5t12 -10.5t8.5 -10.5l-76 -94q-4 0 -17.5 -0.5t-19.5 -0.5z" />
    <glyph glyph-name="quotedblleft" unicode="&#x201c;" horiz-adv-x="405" 
d="M331 552q-4 3 -10 7t-12.5 9.5t-12 11t-8.5 10.5l76 94q4 0 17.5 0.5t19.5 0.5zM244 552q-4 3 -10 7t-12.5 9.5t-12 11t-8.5 10.5l76 94q4 0 17.5 0.5t19.5 0.5z" />
    <glyph glyph-name="parenleft" unicode="(" horiz-adv-x="320" 
d="M442 700q4 -8 8.5 -23.5t4.5 -28.5q-2 -2 -31 -23.5t-70 -64.5t-85 -103t-82 -129t-66.5 -138t-45.5 -126q-17 -58 -21.5 -95t-5.5 -41q-9 2 -24 8t-24 15q1 4 7 42.5t24 98.5q17 59 47.5 130.5t71.5 141.5q40 71 86.5 133.5t90.5 107.5q45 45 78 69t37 26z" />
    <glyph glyph-name="parenright" unicode=")" horiz-adv-x="426" 
d="M-16 -72q-4 8 -8.5 23.5t-4.5 28.5q2 2 31 23.5t70 64.5t85 103t82 129t66.5 138t45.5 126q17 58 21.5 95t5.5 41q9 -2 24 -8t24 -15q-1 -4 -7 -42.5t-24 -98.5q-17 -59 -47.5 -130.5t-71.5 -141.5q-40 -71 -86.5 -133.5t-90.5 -107.5q-45 -45 -78 -69t-37 -26z" />
    <glyph glyph-name="asterisk" unicode="*" horiz-adv-x="487" 
d="M438 512q-2 -7 -7 -18.5t-10 -18.5q-2 0 -34 9t-77 21q6 -23 12 -43.5t11 -36t8 -25.5t3 -11q-8 -2 -20.5 -4t-20.5 -1q-1 2 -10.5 36.5t-22.5 80.5l-38 -28.5l-32 -24t-23 -17t-10 -7.5q-4 6 -10.5 17t-8.5 19q1 1 8 6.5t19 14.5t27.5 20.5t33.5 24.5q-22 6 -41.5 11.5
t-35 9.5t-25 7t-10.5 3q2 7 7 18.5t10 18.5q2 0 34 -9t77 -21q-6 22 -12 43t-11 36.5t-8 25.5t-3 11q8 2 20.5 4t20.5 1q1 -2 10.5 -36.5t23.5 -80.5q19 15 37 28t32 23.5t23 17t10 7.5q4 -6 10.5 -17t8.5 -19q-2 -1 -27 -20t-60 -45q22 -6 41.5 -11.5t34.5 -9.5t24.5 -7
t10.5 -3z" />
    <glyph glyph-name="plus" unicode="+" horiz-adv-x="616" 
d="M501 249q-2 -9 -4 -24.5t-6 -25.5h-21h-50t-70 0.5t-81 0.5q-21 -37 -41.5 -72t-37 -62.5t-27 -45.5t-11.5 -20q-8 5 -20 15.5t-19 18.5q1 1 9 15.5t21.5 37t31 52t36.5 61.5q-39 0 -74.5 0.5t-63 0.5h-45h-19.5q1 9 3 24.5t7 25.5h20.5h50t70 -0.5t81.5 -0.5
q21 37 41.5 72t37 62.5t26.5 45t11 19.5q8 -5 20 -15t19 -18q-1 -2 -9 -16t-21 -36.5t-30.5 -52t-36.5 -61.5h74.5t63 -0.5t45 -0.5h19.5z" />
    <glyph glyph-name="comma" unicode="," horiz-adv-x="214" 
d="M114 51l-76 -130q-8 5 -19.5 16t-16.5 22l54 92h58z" />
    <glyph glyph-name="hyphen" unicode="-" horiz-adv-x="365" 
d="M324 265q0 -9 -1.5 -24.5t-3.5 -25.5q-74 1 -124 1.5t-81 0.5t-45 -0.5t-15 -0.5q0 9 1.5 24.5t3.5 26.5z" />
    <glyph glyph-name="period" unicode="." horiz-adv-x="155" 
d="M92 77l-44 -77q-7 5 -18.5 16t-17.5 22l23 39h57z" />
    <glyph glyph-name="colon" unicode=":" horiz-adv-x="263" 
d="M94 77l-44 -77q-7 5 -19 16t-17 22l23 39h57zM166 211l-44 -77q-7 5 -19 16t-17 22l23 39h57z" />
    <glyph glyph-name="semicolon" unicode=";" horiz-adv-x="339" 
d="M62 49q4 0 12 0.5t17 0.5t17.5 -0.5t11.5 -0.5l-76 -130q-8 5 -19.5 16t-16.5 22zM192 184l-44 -77q-8 5 -19.5 16t-16.5 22l22 39h58z" />
    <glyph glyph-name="less" unicode="&#x3c;" horiz-adv-x="596" 
d="M136 301q26 -12 64.5 -31t82 -40.5l87 -43t79 -39t59 -29t25.5 -12.5q-5 -8 -14 -20.5t-17 -20.5q-2 1 -34 16.5t-79 39t-102 50t-102 50t-79.5 39.5t-35.5 17l-4 20q-2 8 -3 17t0 15q2 1 36 12.5t83.5 28.5t107.5 36.5t107.5 37t84 29l37.5 12.5q2 -9 5 -24.5t2 -26.5
q-2 0 -23 -7.5t-53.5 -18.5t-74 -25t-84.5 -28.5t-83.5 -28.5t-71.5 -25z" />
    <glyph glyph-name="greater" unicode="&#x3e;" horiz-adv-x="588" 
d="M453 301q-31 11 -71.5 25t-83.5 28.5t-84.5 28.5t-74 25t-53.5 18.5t-23 7.5q-1 11 2 26.5t5 24.5l37.5 -12.5t84 -29t107.5 -37t107.5 -36.5t83.5 -28.5t36 -12.5q0 -6 -0.5 -15t-2.5 -17l-4 -20q-3 -1 -35.5 -17t-79.5 -39.5t-102 -50t-102 -50t-79 -39t-34 -16.5
q-8 8 -17 20.5t-14 20.5q2 1 25.5 12.5t59 29t79 39l87 43t82 40.5t64.5 31z" />
    <glyph glyph-name="equal" unicode="=" horiz-adv-x="750" 
d="M30 51h38h88.5t113 -0.5t113.5 -1t89.5 -0.5h39.5q-2 -9 -4 -24.5t-7 -25.5h-37.5t-88 0.5t-113.5 0.5t-113.5 0.5t-89 0.5h-39.5l3 24t7 26zM122 247h23h54.5h76t86.5 -0.5t86.5 -0.5t76 -0.5t55.5 -0.5h24q-1 -9 -3 -24.5t-7 -25.5h-23h-54.5t-75.5 0.5t-86 0.5
t-86.5 0.5t-76.5 0.5h-55.5h-23.5l3 24t6 26z" />
    <glyph glyph-name="slash" unicode="/" horiz-adv-x="492" 
d="M438 696q7 -6 18 -17.5t16 -23.5l-68 -115l-142 -243l-212 -363q-8 5 -19 17t-16 23l209 359l143 244q30 51 49.5 83t21.5 36z" />
    <glyph glyph-name="backslash" unicode="\" horiz-adv-x="492" 
d="M49 696q2 -4 21.5 -36t49.5 -83l143 -244l209 -359q-5 -11 -16 -23t-19 -17l-212 363l-142 243l-68 115q5 12 16 23.5t18 17.5z" />
    <glyph glyph-name="bracketleft" unicode="[" horiz-adv-x="401" 
d="M578 699q0 -9 -0.5 -24.5t-1.5 -25.5q-1 0 -14.5 -0.5t-32 -0.5h-39.5h-38l-204 -349l-143 -243l-22.5 -37.5t-18.5 -31.5l147 1q0 -9 -0.5 -24.5t-2.5 -26.5h-174v1q-7 6 -18 17.5t-16 22.5q1 3 20 34.5t48.5 81.5t66.5 113t76 129q59 101 106 181q20 34 39 66.5t34 58
t24 41.5l9 16h155v0z" />
    <glyph glyph-name="bracketright" unicode="]" horiz-adv-x="532" 
d="M-88 -63q0 9 0.5 24.5t1.5 25.5q1 0 14 0.5t32 0.5h40h38l204 349l143 243l22.5 37.5t18.5 31.5l-147 -1q0 9 0.5 24.5t2.5 26.5h174v-1q7 -6 18 -17.5t16 -22.5q-2 -3 -20.5 -34.5t-48 -81.5t-66.5 -113t-76 -129q-59 -101 -106 -181l-106 -182h-155v0z" />
    <glyph glyph-name="braceleft" unicode="{" horiz-adv-x="343" 
d="M435 690q11 2 18 2h9q-1 -9 -3 -24.5t-5 -25.5q-1 -1 -17 -3t-37 -18q-10 -8 -20.5 -20.5t-20.5 -27.5q-10 -16 -19 -33.5t-18 -36.5l-18 -38t-20 -37t-23 -34.5t-27 -29.5q-8 -6 -16 -10.5t-16 -7.5q-4 -2 -5 -2q1 -3 2 -6.5t3 -8.5q3 -12 3 -29t-5 -35
q-11 -37 -34 -72.5t-47 -70.5q-13 -17 -24.5 -33.5t-20.5 -32.5q-20 -34 -23 -59q-2 -12 0.5 -20.5t6.5 -14.5q4 -5 7 -8.5t3 -4.5q-7 -6 -19.5 -15.5t-23.5 -11.5q-1 1 -5.5 7t-10.5 17l-4.5 13.5t-3.5 15.5q-2 9 -1.5 18.5t2.5 19.5q4 19 12.5 37.5t19.5 36.5t23 35.5
t25 34.5q12 17 23.5 34t21.5 33q21 35 25 60q3 13 2 22.5t-3 16.5t-4.5 10.5t-3.5 4.5q2 0 3 1h-2q2 9 6 24t8 25h4.5t10.5 2q16 2 33 17q19 18 38 52q9 17 18 35t18 37q9 20 19 38.5t22 36.5t25.5 33.5t29.5 26.5t31.5 16.5t27.5 7.5z" />
    <glyph glyph-name="braceright" unicode="}" horiz-adv-x="434" 
d="M-24 -75q-11 -2 -18 -2h-9q1 9 3 24.5t5 25.5q1 1 17 3t37 18q10 8 20.5 20.5t20.5 27.5q10 16 19 33.5t18 36.5l18 38t20 37t23 34.5t27 29.5q8 6 16 10.5t16 7.5q4 2 5 2q-1 3 -2 6.5t-3 8.5q-3 12 -3 29t5 35q11 37 34 72.5t47 70.5q13 17 24.5 33.5t20.5 32.5
q20 34 23 59q2 12 -0.5 20.5t-6.5 14.5q-4 5 -7 8.5t-3 4.5q7 6 19.5 15.5t23.5 11.5q1 -1 5.5 -7t10.5 -17l4.5 -13.5t3.5 -15.5q2 -9 1.5 -18.5t-2.5 -19.5q-4 -19 -12.5 -37.5t-19.5 -36.5t-23 -35.5t-25 -34.5q-12 -17 -23.5 -34t-21.5 -33q-21 -35 -25 -60
q-3 -13 -2 -22.5t3 -16.5t4.5 -10.5t3.5 -4.5q-2 0 -3 -1h2q-2 -9 -6 -24t-8 -25h-4.5t-10.5 -2q-16 -2 -33 -17q-19 -18 -38 -52q-9 -17 -18 -35t-18 -37q-9 -20 -19 -38.5t-22 -36.5t-25.5 -33.5t-29.5 -26.5t-31.5 -16.5t-27.5 -7.5z" />
    <glyph glyph-name="bar" unicode="|" horiz-adv-x="247" 
d="M100 13v32v77v106.5t0.5 121.5t0.5 122t0.5 107.5t0.5 78v33.5q9 -2 24.5 -5t25.5 -9v-31.5v-76.5t-0.5 -107t-0.5 -122t-0.5 -121.5t-0.5 -107v-78v-33.5q-8 1 -24 4t-26 9z" />
    <glyph glyph-name="zero" unicode="0" horiz-adv-x="690" 
d="M655 653q8 -5 19.5 -16t16.5 -22l-179 -306l-122 -207q-25 -42 -42 -71t-19 -31h-293q-2 2 -8 7t-12 10.5t-10.5 11.5t-5.5 9l360 612v1h1h292zM624 600h-235l-323 -550h235q9 14 26.5 43.5t40.5 69t50.5 86.5t55.5 95z" />
    <glyph glyph-name="one" unicode="1" horiz-adv-x="495" 
d="M194 101q-9 -14 -16.5 -27t-14.5 -24h114q-1 -8 -2 -24t-4 -26h-271q1 9 2 24.5t3 25.5h100q9 15 26.5 44.5t40.5 69t50 86t55 94.5l70 118q-32 -34 -64.5 -68t-58.5 -61.5t-43 -45.5t-19 -20q-6 7 -15.5 19.5t-14.5 22.5q2 2 26 27t59 62.5t76 81t76.5 81t60 63
t27.5 27.5q8 -5 19 -15t18 -21l-178 -306z" />
    <glyph glyph-name="two" unicode="2" horiz-adv-x="648" 
d="M621 651q6 -7 14.5 -20.5t10.5 -26.5q-2 -2 -28 -29.5t-68 -70.5q-43 -43 -96.5 -96t-110.5 -108q-38 -37 -75.5 -73t-71.5 -68.5t-64 -60.5t-52 -49h221q-1 -8 -3 -23.5t-4 -25.5h-294q0 5 1 13t3 16q2 10 3 21q3 3 18 17.5t38 36t51.5 49t58 55.5t58 54.5t50.5 48
t35.5 34.5t14.5 14l-10 240l10 20q9 17 18 31h271zM524 549q14 14 25.5 26.5t22.5 23.5h-201l9 -193q40 39 76.5 75.5z" />
    <glyph glyph-name="three" unicode="3" horiz-adv-x="669" 
d="M632 653q8 -5 19.5 -16t17.5 -22l-362 -615h-292q-6 10 -9.5 25.5t-5.5 24.5h278q7 12 20.5 34t31 51.5t38 65t43.5 74.5h-230q-7 10 -10 26t-5 24h275q0 1 7.5 13.5t18.5 32t25.5 44t29.5 50.5q35 60 79 135h-262h-1q-7 10 -10.5 26t-4.5 24h308l1 3v0z" />
    <glyph glyph-name="four" unicode="4" horiz-adv-x="481" 
d="M444 489q8 -5 20 -15t18 -19l-132 -227q-24 -42 -48 -82t-42.5 -71.5t-31 -52t-13.5 -22.5q-8 5 -20 15.5t-18 20.5q1 1 9 14.5t21 35.5t30.5 51t36.5 62h-235l-16 12q-7 5 -13.5 11t-9.5 11q1 2 19 33t45 76.5t58 98t58 98t45 77t20 34.5q8 -5 20 -15t19 -19
q-1 -2 -13 -22t-30.5 -51.5t-41.5 -71t-47 -79.5t-46 -77.5t-38 -64.5h236l6.5 11t16.5 28t22.5 38.5t25.5 43.5q31 52 69 118z" />
    <glyph glyph-name="five" unicode="5" horiz-adv-x="656" 
d="M654 651q-2 -9 -5.5 -24.5t-10.5 -25.5h-13h-31.5h-44h-49.5h-135l-88 -150h235l1 1q7 -5 19.5 -15t18.5 -19q-1 -2 -18.5 -32t-43.5 -74.5t-56.5 -96.5t-57.5 -97.5t-46.5 -78t-22.5 -38.5v-1h-291q-6 11 -9.5 26.5t-5.5 24.5h277l39 66t56 95.5t60 102.5t51 86h-236
l-12 -21q-8 5 -20.5 14t-20.5 17l142 240h318z" />
    <glyph glyph-name="six" unicode="6" horiz-adv-x="666" 
d="M667 652q-2 -9 -5.5 -24.5t-10.5 -26.5h-132q-57 0 -129 1q-11 -17 -34 -57t-54 -93h237q5 -3 17 -12.5t20 -20.5q-1 -2 -12 -21t-28 -48.5t-39 -66.5t-45 -76q-54 -91 -121 -206h-293q-8 7 -16 13q-7 5 -13.5 11.5t-8.5 11.5l301 513q12 21 23 39.5t19 32.5q10 16 18 30
h294h12zM272 402q-14 -23 -27.5 -46.5t-27.5 -47.5l-150 -256h235l39 66t56 95.5t60 102.5t51 86h-236z" />
    <glyph glyph-name="seven" unicode="7" horiz-adv-x="409" 
d="M251 286h31q0 -9 -0.5 -24.5t-2.5 -26.5h-57l-80 -135q-26 -44 -42.5 -71t-18.5 -30q-7 5 -18.5 16t-16.5 22q1 2 10.5 18t25.5 42.5t36.5 62t44.5 75.5h-16h-11q-3 0 -5 1q-6 10 -9.5 26t-5.5 24h77q8 14 16.5 28t16.5 28l150 256h-129h-89q-21 0 -40 1q-6 10 -9.5 25.5
t-5.5 24.5h302l2 3q7 -6 19 -16.5t17 -21.5l-179 -306z" />
    <glyph glyph-name="eight" unicode="8" horiz-adv-x="691" 
d="M655 653q8 -5 19.5 -16t16.5 -22l-179 -306l-122 -208q-13 -21 -23.5 -39t-18.5 -32q-10 -16 -18 -30h-294v-1v1q-8 6 -15 13q-6 5 -12.5 12t-8.5 12l361 613h292zM301 50q8 13 23.5 39t36.5 61t45 77t50 86h-235l-155 -263h235zM624 600h-235l-139 -237h236z" />
    <glyph glyph-name="nine" unicode="9" horiz-adv-x="661" 
d="M626 653q7 -5 19 -16t17 -22q-100 -170 -179 -305q-34 -57 -66.5 -112t-58 -98.5t-41.5 -70.5t-16 -28l-1 -1h-285q-6 11 -9.5 26.5t-5.5 24.5q19 -1 42 -1h94h136q11 17 34 57t54 93h-236v-1q-7 5 -19.5 15t-18.5 19q1 2 19.5 34t46 78.5t58.5 99.5t58 99t45 76.5
l18 30.5h293zM595 600h-235l-39 -66t-56 -95.5t-60 -102.5t-51 -86h236q14 23 27.5 46.5t27.5 47.5z" />
    <glyph glyph-name="at" unicode="@" horiz-adv-x="943" 
d="M978 606q7 -5 18 -17t16 -23l-69 -116l-142 -243l-212 -363q-3 0 -31.5 -0.5t-72.5 -0.5h-99.5h-113.5h-306q-7 6 -18 17.5t-16 23.5l209 359l143 244q30 51 49.5 83t21.5 36h623zM907 488q11 20 21.5 37t18.5 31l-564 -1l-63 -105l-142 -243l-182 -313l565 1l203 349z
M692 400h-269q0 9 1.5 24.5t4.5 25.5l293 1v-1q8 -5 20 -15t18 -19l-244 -415v-1h-1v-1v1h-293v-1l-1 1q-8 5 -20 14t-19 17l177 300v3h294zM624 283h-235l-138 -233h235z" />
    <glyph glyph-name="trademark" unicode="&#x2122;" horiz-adv-x="510" 
d="M463 635q1 0 4.5 -4.5t5.5 -7.5q-1 -1 -10 -16.5t-22.5 -38.5t-29 -49.5t-29 -49.5t-22.5 -39t-10 -17q-2 2 -5.5 5t-4.5 7q0 1 10 18t24 41t30 51.5t30 50.5l-87 -85q-1 0 -6.5 1.5t-7.5 3.5l6 46l6 46q-5 -8 -21.5 -37.5t-36.5 -62.5q-23 -39 -50 -85l-5 5t-5 7
l124 210q2 -1 6.5 -2t7.5 -3q-4 -26 -7 -48q-3 -19 -5 -35.5t-3 -21.5q11 11 29.5 29t37.5 36q22 21 46 45zM342 635q-1 -2 -1.5 -7t-2.5 -8h-70l-121 -207l-5 5t-5 7l56 96q10 18 20.5 35.5t18.5 31t13 22.5t6 10h-71q0 3 0.5 8.5t2.5 6.5h159z" />
    <glyph glyph-name="endash" unicode="&#x2013;" horiz-adv-x="438" 
d="M404 265q0 -9 -1.5 -24.5t-3.5 -25.5q-74 1 -139.5 1.5t-115 0.5t-79 -0.5t-30.5 -0.5q0 9 1.5 24.5t3.5 26.5z" />
    <glyph glyph-name="emdash" unicode="&#x2014;" horiz-adv-x="597" 
d="M567 265q0 -9 -1.5 -24.5t-3.5 -25.5q-49 1 -107 1t-116.5 0.5t-113 0.5h-96.5t-67.5 -0.5t-26.5 -0.5q0 9 1.5 24.5t3.5 26.5z" />
    <glyph glyph-name="paragraph" unicode="&#xb6;" horiz-adv-x="801" 
d="M755 655q-1 -8 -3 -24.5t-7 -27.5l-125 1l-175 -300l-122 -208q-26 -44 -42.5 -71t-18.5 -30q-7 5 -18.5 16t-16.5 22q1 2 17 29t41 69.5t57 96.5t65 110l155 266h-133l-176 -300l-122 -208q-26 -44 -42.5 -71t-18.5 -30q-7 5 -18.5 16t-16.5 22q1 2 17 29t41.5 69.5
t57 96.5t64.5 110l156 267h-123q1 9 3.5 24.5t6.5 25.5h24h56.5h78h89h89h78.5h57.5h24.5z" />
    <glyph glyph-name="currency" unicode="&#xa4;" horiz-adv-x="419" 
d="M351 381q-4 -7 -9.5 -18.5t-10.5 -18.5l-51 23l-29 -63l-65 30l-26 -55q-6 3 -17.5 9t-19.5 10l25 53l-66 31l29 63l-52 25q3 6 9 17.5t10 19.5l51 -24l26 56l66 -30l28 62q7 -3 18.5 -9t18.5 -10l-27 -61l65 -30l-26 -56zM220 379l27 57l-61 28l-26 -57z" />
    <glyph glyph-name="brokenbar" unicode="&#xa6;" horiz-adv-x="168" 
d="M61 698q9 -1 24.5 -2t25.5 -4v-24.5t0.5 -56.5t0.5 -73t0.5 -73t1 -57.5t0.5 -25.5q-9 2 -25 3t-26 3v25t-0.5 56.5t-0.5 73t-0.5 73t-0.5 57v25.5zM63 6v24v57t-0.5 73t-0.5 72.5t-0.5 57t-0.5 25.5q8 -1 23.5 -2t26.5 -3q0 -2 0.5 -25t0.5 -56.5t0.5 -73t0.5 -73v-57
v-25.5q-9 1 -24.5 2t-25.5 4z" />
    <glyph glyph-name="section" unicode="&#xa7;" horiz-adv-x="652" 
d="M327 512q-6 -10 -18.5 -31.5t-29.5 -47.5h166l5 8q7 -5 19.5 -14.5t19.5 -17.5l-167 -286l-1 -2h-1h-223q1 9 2 24.5t3 25.5h190l46 79h-171q-2 -2 -2 -3l-1 -1q-8 5 -20 14t-20 17q1 2 13 22t29.5 50t38.5 65t39.5 66.5t32 54l16.5 27.5h251q-1 -9 -2.5 -24.5
t-3.5 -25.5h-211zM247 382q-13 -22 -26 -43t-24 -38h170l48 82z" />
    <glyph glyph-name="copyright" unicode="&#xa9;" horiz-adv-x="943" 
d="M698 6l1 -1h-2l-1 1v1v2h1l1 -1v-2zM391 -72l-2 -2l-1 -1h-1l-1 -1h-1l1 2q0 1 1 2l2 2q1 0 1 0.5t1 0.5v-1v-2zM342 196q0 -2 -1 -4l-2 -2t-4 -2q0 2 1 4v3v3q0 1 0.5 1.5t0.5 1.5h3l2 -2v-3zM377 -71l1 2l1 1q1 0 1 0.5t1 0.5h2l-1 -1q0 -1 -0.5 -1t-0.5 -1q-1 0 -2 -1
h-2zM348 -59h-1t0 1t2 1q0 1 2 1h2l-1 -1q-1 -1 -2 -1q0 -1 -2 -1zM297 -19q-1 -1 -3 -1h-2h1q1 0 1 0.5t1 0.5q2 0 2 1h2q1 0 1 1l-2 -1q0 -1 -1 -1zM324 191q0 -1 -0.5 -1.5t-0.5 -2.5t-2 -2q0 -1 -2 -1q-1 0 -2 1q0 2 -1 3q0 3 1 4v4q1 1 1 1.5t1 1.5t2 1q2 0 2 -2
q1 0 1 -3v-4zM247 196q0 -2 -1 -4l-2 -2t-4 -2q0 2 1 4v3v3q0 1 0.5 1.5t0.5 1.5h3l2 -2v-3zM299 -33q1 1 3 1h1v-2q-1 -1 -1 -2v-2l-1 1v2q-1 0 -1 1zM280 -18q-1 0 -1 -1h-1h-2h-1h-1q0 1 1 2q1 0 1.5 0.5t1.5 0.5q1 1 2 1h2q0 -1 -1 -1v-1v-1h-1zM329 -51l1 1q0 1 0.5 1
t0.5 1h2h2l-1 -1q0 -1 -2 -1q0 -1 -1 -1h-2zM509 -82q0 -1 -0.5 -1t-0.5 -1q-1 0 -1 -0.5t-1 -0.5v2q0 1 0.5 1t0.5 1t1 1q1 1 2 1v-1q0 -1 -0.5 -1t-0.5 -1zM519 -81v-1v-1l-1 -1l-1 -1l-1 -1h-1v2q1 1 1 3q0 1 0.5 1t0.5 1l1 1h1v-1v-1v-1zM488 -84q0 -1 -1 -1v-1l-1 -1
l-1 -1q-1 0 -1 -1v3q0 1 1 2q0 1 1 2q0 1 0.5 1.5t0.5 -0.5h1v-1v-1v-1zM472 195q0 -2 1 -3v-4h-2q0 -1 -2 -1l2 4q0 3 1 4zM466 -82v-1q-1 -1 -1 -3h-1q0 -1 -1 -1l-1 -1h-1v2q1 1 1 2l2 2q0 1 1 1zM630 -43q1 -1 1 -3v-1l-1 -1q0 -1 -1 -1v-1l-1 2v2v3v2q1 0 1 -1z
M404 192l-2 -2t-4 -2q0 1 0.5 1.5t0.5 2.5v3v3q1 1 1 3h3l2 -2v-3q0 -2 -1 -4zM651 -31v-2h-1q-1 1 -1 2v1v1h1l1 -1v-1zM428 -80q-1 -1 -2 -1q0 -1 -1 -1v2l1 1q1 1 2 1l1 1h1l-1 -2zM438 -81q0 -1 -1 -2q0 -1 -1 -1l-1 -1h-1l-1 -1v2q1 1 1 3q2 0 2 2q1 0 1 1l1 -2v-1z
M533 -76v-1v-2q-1 0 -1 -1l-1 1v1v1q0 1 1 1h1zM252 14h1q1 0 1.5 0.5t1.5 0.5h2q1 0 2 1l-2 -1h-2q-1 0 -1 -0.5t-1 -0.5h-2zM578 198q1 0 1 -3v-4q0 -1 -0.5 -1.5t-0.5 -2.5l-2 -2q0 -1 -2 -1q-1 0 -2 1q0 1 -0.5 1.5t-0.5 1.5v4q1 2 1 4q1 1 1 1.5t1 1.5t2 1q2 0 2 -2z
M237 18h-1q-1 0 -1 1h-1l1 1q1 1 3 1q1 1 3 1l1 -1v-1h-1v-1q-1 0 -2 -1h-2zM231 328q4 -4 5 -12q1 -5 1.5 -8.5t0.5 -7.5q-4 -15 -6 -29q-3 -6 -8 -11q-5 -6 -11 -11q-3 -2 -5.5 -4t-5.5 -4t-5 -3l-4 -2q-3 9 2 25q2 8 4.5 15t5.5 15q4 7 7 13.5t7 11.5q7 10 12 12zM258 10
h-2h2q1 0 2 1h4h-1q-1 -1 -2 -1h-3zM690 186q0 9 8 9t8 -9q0 -8 -8 -8t-8 8zM702 191q-1 0 -1.5 0.5t-2.5 0.5q-6 0 -6 -6t6 -6q1 0 2 0.5t2 0.5v2q-1 -1 -4 -1q-4 0 -4 4q0 5 4 5q2 0 2.5 -0.5t1.5 -0.5v1zM464 273q-2 4 -3 7.5t-2 8.5q-1 7 0 16q2 8 5 14q3 5 9 10
q5 -1 7 -6q1 -6 0 -14q0 -7 -5 -17q-2 -5 -4.5 -9.5t-6.5 -9.5zM370 200q1 -1 1 -2v-3v-2l-2 -2q0 -2 -2 -2q0 -1 -2 -1v3v4q1 1 1 3v3h3zM440 197q0 -1 1 -2v-4q-1 -1 -1 -4l-2 -2q-1 -1 -2 -1q-2 0 -2 1q-1 1 -1 3v4q0 2 0.5 2.5t0.5 1.5t2 3q0 1 2 1l2 -2v-1zM474 685
q77 0 145 -31.5t119 -86.5t80.5 -128t29.5 -157q0 -83 -29.5 -156.5t-80.5 -128t-119 -86t-145 -31.5q-78 0 -146 31.5t-119 86t-80.5 128t-29.5 156.5q0 84 29.5 157t80.5 128t119 86.5t146 31.5zM832 290h-3v-6h3v6zM832 304l-4 -1q1 -2 1 -6h3v7zM832 311q-1 2 -1 6h-3
v-7zM830 331h-4q0 -2 0.5 -3.5t0.5 -3.5h3v7zM829 338q-1 3 -1 7h-4q1 -3 1 -7h4zM827 352q-1 2 -1 3.5t-1 3.5l-3 -1q0 -2 0.5 -3.5t0.5 -3.5zM824 366q0 2 -0.5 3t-0.5 3h-4q1 -2 1 -3.5t1 -3.5zM821 379q0 3 -2 7l-3 -1q1 -2 1 -3.5t1 -3.5zM801 391q0 3 -2 7h-1
q0 -3 2 -7h1zM799 173q0 -2 -2 -6l2 -1q1 2 1 3.5t1 3.5h-2zM803 187q0 -3 -2 -7l2 -1q1 2 1 3.5t1 3.5zM816 309q0 2 -0.5 3.5t-0.5 3.5h-2q1 -2 1 -7h2zM814 302q0 -2 0.5 -3t0.5 -3h1v7zM815 323q-1 3 -1 7h-2q0 -2 0.5 -3.5t0.5 -3.5h2zM813 337q0 2 -0.5 3.5t-0.5 3.5
h-2q0 -2 0.5 -3.5t0.5 -3.5h2zM811 351q-1 2 -1 3.5t-1 3.5l-1 -1q0 -2 0.5 -3t0.5 -3h2zM808 364q0 2 -0.5 3.5t-0.5 3.5h-2q0 -2 0.5 -3.5t0.5 -3.5h2zM805 378q-1 2 -1 3.5t-1 3.5l-1 -1q0 -2 0.5 -3t0.5 -3h2zM806 193q1 2 1 3.5t1 3.5h-2q0 -2 -0.5 -3.5t-0.5 -3.5h1z
M809 206q1 2 1 3.5t1 3.5l-2 1q-1 -3 -1 -7zM812 220q0 5 1 7h-2q0 -2 -0.5 -3.5t-0.5 -3.5h2zM814 234v7h-1q-1 -2 -1 -7h2zM815 248q0 4 1 7h-2q0 -5 -1 -7h2zM816 262v7h-1q0 -2 -0.5 -3.5t-0.5 -3.5h2zM817 275v5h-2v-4zM817 284v5h-2v-5h2zM818 393q-2 4 -2 6l-4 -1
q2 -4 2 -6zM814 406q-2 4 -3 7l-3 -1q2 -6 2 -7zM809 419q-1 2 -1 3.5t-1 3.5l-3 -1q0 -3 2 -7zM804 432q-1 2 -1 3.5t-1 3.5l-3 -2q0 -2 2 -6zM799 445q-2 4 -3 7l-3 -2l3 -6zM797 405q0 2 -2 6h-2q1 -2 1.5 -3.5t1.5 -3.5zM795 160q0 -1 -2 -7h2q1 2 1 3t1 3zM787 463
q1 -2 1.5 -3.5t1.5 -3.5l3 2l-3 6zM793 418l-3 6h-1q0 -3 2 -7zM791 147q-2 -4 -3 -7h2q2 4 2 6zM788 431l-3 6l-2 -1l3 -6zM786 134l-3 -6l2 -1q1 2 1 3t1 3zM781 475l3 -6l3 1l-3 6zM779 450l-1 -1l3 -6l1 1zM774 487l3 -6l3 2l-3 6zM773 462l-1 -1l3 -6l1 1zM767 499
l3 -6l3 2q-1 2 -1.5 2.5t-1.5 2.5zM770 468q-2 4 -4 6h-1l3 -6h2zM759 510q1 -2 2 -3t2 -3l3 2q-2 2 -4 6zM763 480q-1 2 -2 3t-2 3l-1 -1q1 -1 3 -5h2zM751 521q1 -2 2 -2.5t2 -2.5l3 2q-1 2 -2 2.5t-2 2.5zM750 497q2 -2 4 -6l2 1q-2 2 -4 6zM743 532q2 -4 4 -5l3 2l-5 5z
M742 508q3 -3 4 -5l2 1q-2 2 -2.5 3t-1.5 2zM734 543q1 -2 2 -3t2 -3l3 3q-2 1 -2.5 2t-2.5 3zM740 515q-2 2 -2.5 3t-2.5 2l-1 -1q3 -3 4 -5zM725 553q1 -2 4 -5l3 2q-2 2 -2.5 3t-2.5 2zM731 526q-1 2 -2 2.5t-2 2.5l-2 -1q2 -2 2.5 -3t2.5 -2zM715 563q2 -2 2.5 -3
t2.5 -2l2 2q-2 3 -5 5zM722 536q-2 3 -5 5l-1 -1q2 -1 2.5 -2t2.5 -3zM705 572q2 -1 2.5 -2t2.5 -2l2 2q-1 2 -2 2.5t-3 2.5zM713 547q-2 1 -5 4l-1 -1q3 -3 4 -5zM695 581q3 -3 5 -4l2 2q-2 3 -5 5zM703 556q-2 2 -2.5 3t-2.5 2l-1 -1q1 -2 2 -2.5t3 -2.5zM684 590
q2 -1 5 -4l3 2q-2 2 -3 2.5t-3 2.5zM693 566q-2 1 -5 4l-2 -1q2 -2 3 -2.5t3 -2.5zM676 578l5 -5l1 2q-2 1 -2.5 2t-2.5 2zM673 598q4 -2 6 -4l2 3q-2 1 -3 2t-3 2zM662 606q4 -2 6 -4l2 3q-2 2 -6 4zM671 583q-3 3 -5 4l-1 -1q2 -1 2.5 -2t2.5 -2zM650 614q2 -1 3 -2t3 -2
l2 3q-2 1 -3 2t-3 2zM654 595l-1 -1q2 -1 3 -2t3 -2l1 2zM638 621q2 -1 3 -2t3 -2l2 3q-2 1 -3 2t-3 2zM649 599q-2 1 -3 2t-3 2l-1 -2l6 -3zM632 624l2 3l-6 3l-2 -3zM637 606q-2 2 -6 4l-1 -2l6 -3zM614 633l6 -3l2 3q-3 1 -7 3zM625 613q-3 1 -7 3v-1l6 -3zM607 636l2 3
q-4 2 -7 3l-1 -3zM606 622l-1 -1l6 -3l1 1zM588 644q2 -1 3.5 -1.5t3.5 -1.5l1 4q-1 0 -7 2zM593 628l-1 -2q2 -1 3.5 -1.5t3.5 -1.5v2zM575 648q3 0 7 -2l1 3q-2 1 -3.5 1.5t-3.5 1.5zM586 630q-4 2 -6 2l-1 -1q2 -1 3.5 -1.5t3.5 -1.5v2zM562 652q1 0 7 -2l1 4
q-2 0 -3.5 0.5t-3.5 0.5zM573 635q-2 0 -6 2l-1 -2q2 -1 3.5 -1t3.5 -1v2zM548 655q2 0 3.5 -0.5t3.5 -0.5l1 3q-2 1 -3.5 1t-3.5 1zM560 639q-2 0 -3.5 0.5t-3.5 0.5v-1q2 -1 3 -1t3 -1zM535 658q2 0 3.5 -0.5t3.5 -0.5v3q-2 1 -3 1t-3 1zM546 642q-2 1 -3 1t-3 1l-1 -2
q2 -1 3.5 -1t3.5 -1v2zM521 660q5 0 7 -1l1 4q-2 0 -3.5 0.5t-3.5 0.5zM533 645q-2 0 -3.5 0.5t-3.5 0.5v-2q4 0 6 -1zM508 662q4 0 7 -1v4q-5 0 -7 1v-4zM519 647q-2 0 -3.5 0.5t-3.5 0.5v-2q5 0 7 -1v2zM494 663h7v3q-2 0 -3.5 0.5t-3.5 0.5v-4zM498 649v-1q2 -1 7 -1v2
h-7zM480 664q5 0 7 -1v4h-7v-3zM484 650v-2h7v2h-7zM471 650v-2h4h2v2h-2h-4zM466 667v-3h7v3h-7zM464 650h-7v-2h7v2zM459 667q-4 0 -7 -1l1 -3h6v4zM450 649h-7v-2h7v2zM445 666q-2 0 -3.5 -0.5t-3.5 -0.5l1 -3h7zM436 648q-2 -1 -7 -1v-2q2 0 3.5 0.5t3.5 0.5v2zM432 664
q-5 0 -7 -1v-3q2 0 3.5 0.5t3.5 0.5v3zM422 646q-2 -1 -7 -1l1 -2q2 0 3 0.5t3 0.5v2zM418 662q-2 0 -3.5 -0.5t-3.5 -0.5l1 -3q4 0 6 1v3zM408 643q-2 0 -3 -0.5t-3 -0.5v-2q2 1 7 1zM404 660q-2 -1 -3.5 -1t-3.5 -1l1 -3q2 0 3.5 0.5t3.5 0.5zM395 640q-2 -1 -3.5 -1
t-3.5 -1l1 -1q2 0 3 0.5t3 0.5v2zM391 656q-2 0 -3.5 -0.5t-3.5 -0.5l1 -4q2 1 3 1t3 1v3zM382 636q-3 0 -7 -2l1 -1q2 0 6 2v1zM377 653q-4 -2 -6 -2l1 -4q4 2 6 2zM368 632q-4 -2 -6 -2l1 -2q4 2 6 2zM364 648q-1 0 -7 -2l2 -3q2 0 6 2zM369 362q-6 1 -12 0q-4 0 -7 -0.5
t-7 -0.5l-9 -3q-5 -2 -15 -12q-4 -4 -7.5 -9t-7.5 -10q-6 -11 -9 -21l-1 -1q-4 -5 -7.5 -9.5t-7.5 -9.5q-5 -5 -8.5 -9.5t-7.5 -9.5q-4 -4 -7 -8t-6 -7q-2 -4 -4 -6t-3 -4q1 6 3 13t5 15q2 8 5.5 16.5t7.5 17.5q4 8 7.5 17t8.5 18t9 17t9 16t8.5 14t8.5 11q8 11 14 14
q-2 3 -8 3q-3 1 -12 1q-4 -1 -14 -3q-7 -1 -13 -6q-1 -2 -2.5 -4.5t-3.5 -5.5q-5 -8 -9 -18q-2 -5 -4.5 -11t-5.5 -12t-5.5 -12.5t-4.5 -13.5q-1 5 -1 9.5t-1 9.5q-1 10 -3 13q-2 1 -6 0q-2 0 -4.5 -0.5t-4.5 -0.5q-6 -2 -10 -4q-5 -2 -6 -3q-2 -1 -8 -10q-2 -5 -5 -10
t-6 -11t-6 -12.5t-5 -14.5l-4 -14t-3 -14q-1 -13 2 -26q3 -12 15 -20l12 6q8 6 11 9q4 3 10 9q4 4 6 8q0 -5 0.5 -9t1.5 -9q2 -8 6 -14l18 21q6 8 12 15t13 15q2 3 4.5 6.5t4.5 6.5q0 -7 1 -10q0 -15 9 -28q10 -16 26 -26q4 3 8 6.5t9 8.5t10 9.5t10 9.5l10.5 10.5
t10.5 11.5q4 4 7.5 8t6.5 8v-8q-1 -7 -1.5 -13.5t0.5 -12.5q0 -6 1 -12t2 -11q3 -11 8 -15q15 0 29 7q16 8 29 21q8 -6 22 -9l8 10t9 11t10 12.5t10 12.5q4 5 7.5 9.5t7.5 9.5q2 -7 4 -13.5t4 -13.5q-5 -9 -8.5 -17.5t-5.5 -16.5q-4 -16 3 -25q1 3 2.5 7t4.5 9q2 5 5.5 10.5
t7.5 11.5q6 -13 14 -22q6 -10 15 -14l8 8t11 13l24 30q2 2 3.5 4t3.5 4q-1 -4 -3 -14q-1 -12 2 -26q3 -13 15 -20q9 5 17 11q5 4 8.5 7t6.5 6q-7 -20 -14 -36q-3 -9 -6.5 -16t-6.5 -12q-2 4 -1 9q1 3 1 6t2 6q1 4 5 12q4 6 6 8q-8 -3 -12 -9q-3 -4 -4.5 -7.5t-3.5 -7.5
q-3 -8 -2 -15q0 -6 2 -10q5 0 12 5q3 3 6 6.5t6 7.5q6 7 12 18q3 5 5.5 9t4.5 9q1 -4 5 -6l8 8t11 13l24 30q6 8 12 15t11 15q6 7 10 12.5t7 8.5q-2 2 -4 3q-2 2 -4 2q-2 -3 -12 -15q-5 -6 -10.5 -12.5t-11.5 -14.5t-11.5 -14.5t-10.5 -12.5q-5 -7 -8.5 -11t-5.5 -6
q1 2 1.5 5t2.5 7q1 4 2 7t2 7l6 15q2 4 2.5 7t1.5 5q2 5 5 10.5t5 10.5q3 5 5.5 10t5.5 10q2 4 5 7.5t5 6.5q7 7 10 8q-2 3 -7 3q-6 1 -12 0q-7 0 -13 -3q-8 -2 -12 -6l-4 -8q-2 -3 -2.5 -6t-2.5 -8q-2 -4 -3.5 -8.5t-3.5 -9.5t-3 -9.5t-3 -9.5q-1 -2 -1.5 -5t-1.5 -5
q-2 -8 -4 -12q-1 -5 -7 -11q-3 -3 -5.5 -6t-5.5 -5t-5.5 -4.5t-5.5 -4.5t-5 -3l-4 -2q-3 8 -1 21q2 6 3.5 12t3.5 12q4 13 12 27q4 6 7 12.5t7 11.5t7 10t6 9q6 8 11 12h-7q-8 -2 -12 -2l-6 -2l-6 -2q-5 -1 -7 -3q-1 -1 -8 -11q-2 -4 -5 -9t-6 -11q-2 -3 -3 -6.5t-3 -6.5
q-1 -2 -3 -4q-4 -5 -7.5 -9.5t-7.5 -9.5t-7.5 -9.5t-7.5 -9.5q-4 -4 -7 -8t-6 -7q-2 -4 -4 -6t-3 -4q-3 3 -6 6.5t-5 8.5q-5 9 -9 21l10 12l10 12t9.5 11.5t9.5 10.5q9 10 18 18q7 8 15 13q-3 4 -8 6q-4 1 -12 1l-12 -3q-8 -3 -12 -7t-13 -16q-12 -13 -21 -28v17q0 11 1 16
q2 8 4 11q2 4 6 5q-3 3 -8 4q-2 0 -5 0.5t-6 -0.5q-3 0 -5.5 -0.5t-5.5 -1.5q-8 -4 -10 -7q-4 -12 0 -32v-3l-8 -10t-9 -11q-5 -5 -9 -11t-9 -11q-9 -11 -16 -19q-6 2 -10 4q6 7 11.5 13.5t10.5 14.5t8.5 14.5t5.5 14.5q5 14 3 26q0 10 -9 19q-20 3 -36 -5q-14 -7 -23 -21
q-8 -15 -9 -31t7 -31q3 -8 8 -13q-4 -3 -8 -6.5t-9 -5.5q-9 -4 -20 -6q-1 5 -0.5 11.5t2.5 14.5q3 18 9 35q3 8 7 16.5t9 16.5q10 17 19 22q-4 2 -7 3h-11l-12 -3q-8 -4 -11 -7q-7 -7 -11 -16q-5 -13 -8 -23v-1q-2 -2 -2.5 -3t-2.5 -2q-4 -5 -8 -9.5t-9 -9.5t-9.5 -10
t-9.5 -10t-9 -8.5t-8 -8.5q-5 -4 -8 -6.5t-5 -4.5q-14 8 -17 22t2 30q5 15 16 26q12 11 26 12q3 -2 3 -6q1 -2 1 -5t1 -5q0 -7 -1 -10q0 -5 -1 -7q3 2 10 9q6 5 9 16q1 5 1.5 10.5t-0.5 11.5q0 11 -5 19h-7zM780 121l-3 -6l2 -1q1 2 1.5 3.5t1.5 3.5h-2zM774 109l-3 -6l2 -1
l3 6zM729 39q-3 -3 -4 -5l1 -1q1 2 2 2.5t2 2.5zM707 186q0 10 -9 10q-10 0 -10 -10t10 -10q9 0 9 10zM611 184q-2 0 -4 -1v4q0 1 0.5 2t0.5 2v4q0 1 0.5 2t0.5 2v3v1v1q-1 1 -2 1q-1 1 -2 1t-1 -1v-2v-4q-1 -1 -1 -4v-5v-4v-3v-2v-1q1 0 1 -1l1 -1q2 1 3 1t2 1q3 0 3 1h1v2
v1v1q-2 0 -3 -1zM601 203l-1 1h-1q0 1 -1 1l-1 1h-1l-1 -1v-2v-3v-3v-4q-1 1 -1 3q-1 1 -1 3t-1 3v1q0 1 -1 1q-1 1 -2 1l-2 1v-1q0 -1 -0.5 -1.5t-0.5 -1.5v-4v-6q0 -3 -1 -5v-4v-2l1 -1l1 -1h1h1v2q0 2 1 3v3v4q1 -1 1 -1.5t1 -1.5q0 -2 1 -3v-3l1 -1q0 -1 1 -1l1 -1h1h1
v3q0 3 1 4v5q0 2 0.5 3t0.5 3v4q0 1 1 2zM583 197q0 3 -1 4q0 1 -2 3t-4 2q-1 0 -3 -2q-1 0 -3 -2q-1 -2 -1 -2.5t-1 -2.5q0 -1 -0.5 -2t-0.5 -2v-5q0 -2 0.5 -2.5t0.5 -2.5q1 -1 1 -1.5t1 -1.5t4 -1q2 0 3 1l3 3q2 2 2 4q1 2 1 5v5zM549 195q-1 0 -1.5 -0.5t-1.5 -0.5v3v3
h2q2 0 2 1h2h1v1q1 0 1 2v1q0 1 -1 1l-1 -1h-3q-3 0 -4 -1h-4v-1v-3v-3v-4q-1 -1 -1 -4v-3v-3v-1q0 -1 0.5 -1t0.5 -1v-1h1h3q1 1 3 1t2 1h2v1l1 1v2h-1h-1h-2q-1 0 -1 -0.5t-1 -0.5h-3q0 1 1 2v3q1 1 4 1q2 0 2 1h1v2v2h-3zM533 200l1 -1q0 -1 -1 -2v-1q1 0 1 -1h1
q0 -1 1 -1h1h1v5q0 2 -1 3q0 1 -2 3q-1 0 -1.5 0.5t-1.5 0.5t-1 -0.5t-1 -0.5t-1.5 -0.5t-1.5 -0.5q0 -1 -1 -2t-1 -1.5t-1 -1.5v-4q0 -1 2 -3l2 -2q1 -1 1.5 -1t1.5 -1q2 0 2 -2q2 0 0 -2v-1h-2h-1q-1 0 -1 0.5t-1 0.5v2q-1 1 -1 3v1h-2q0 1 -1 1t-1 -1v-5q1 -2 3 -4
q0 1 3 -2h3q2 0 4 2l2 3v3q-1 1 -1 1.5t-1 1.5q-1 0 -1 0.5t-1 0.5q-1 1 -1.5 1t-1.5 1l-2 2v2q0 1 1 2q0 1 1 1q0 1 1 1t1 -1zM511 186v5q0 2 0.5 3t0.5 2v5q0 1 1 2l-1 1l-1 1h-1l-1 1h-1l-1 -1v-2v-3v-4q-1 -1 -1 -3v-4v-3q0 -3 1 -4q0 -2 2 -2q1 -1 3 -1l2 1q1 0 3 2
q0 1 0.5 1.5t0.5 1.5q0 2 1 3v3q1 2 1 4t1 4v2v2q1 1 0 1q-1 1 -2 1t-1 0.5t-1 0.5t-1 -1v-2q0 -2 -1 -3v-4q0 -2 -1 -4v-3v-3q-1 -1 -1 -3h-1q-1 0 -1 1v2zM490 184q-3 0 -5 -1q0 2 0.5 2.5t0.5 1.5v4q0 1 0.5 2t0.5 2v4v3l1 1q0 1 -1 1q-1 1 -2 1q0 1 -2 1l-1 -1v-2v-4v-4
q0 -4 -1 -5v-4v-3v-2l1 -1l1 -1v-1q2 1 3 1t3 1q2 0 3 1q0 1 0.5 1t0.5 1v1q0 1 -1 1zM451 179v2v3q0 1 0.5 1.5t0.5 1.5v4q1 -1 1 -3q1 -1 1 -3q1 -1 1 -3q0 -1 1 -1q0 -1 1 -1l1 -1h1h1v3v4q1 2 1 5q0 4 1 6v4v2v1h-1q0 1 -1 1t-1 1h-1q-1 0 -1 -1v-2v-3v-3q-1 -1 -1 -4
q0 2 -1 3v3q-1 1 -1 3v1q0 1 -1 1q-1 1 -2 1t-1 0.5t-1 0.5l-1 -1v-3v-4q0 -4 -1 -6v-5v-4v-2v-1q1 0 2 -1h1h1zM450 -77v2h-1h-2q0 -1 -1 -2l1 1h2h1v-1zM445 197q0 1 -0.5 2t-0.5 2q-1 1 -1 1.5t-1 1.5q-2 2 -4 2q-1 0 -3 -2q-1 0 -3 -2q-2 -4 -2 -5q-1 -1 -1 -4v-5
q0 -3 1 -5q1 -1 1 -1.5t1 -1.5t3 -1q3 0 4 1l3 3l2 4q0 2 0.5 2.5t0.5 2.5v5zM422 199v-2v-1l1 -1h1q0 -1 1 -1h1q1 2 1 5q0 1 -0.5 1.5t-0.5 1.5t-2 3q-1 0 -1.5 0.5t-1.5 0.5t-1.5 -0.5t-1.5 -0.5l-2 -1q0 -2 -2 -2q0 -1 -0.5 -1.5t-0.5 -1.5v-4q0 -1 0.5 -1.5t0.5 -1.5
q1 -1 1.5 -1t1.5 -1t1.5 -1t1.5 -1l2 -2v-2l-1 -1h-1h-1q-1 0 -1 0.5t-1 0.5q0 1 -1 2v3v1h-2q-1 1 -2 1v-1q-2 -3 0 -5l2 -4l4 -2h3q1 0 3 2q2 0 2 3q1 1 1 3q-1 1 -1 1.5t-1 1.5q-1 0 -2 1t-1.5 1t-1.5 1l-2 2v2q0 1 1 2q0 1 1 1q0 1 1 1l1 -1v-1zM387 195q-1 0 -1.5 -0.5
t-2.5 -0.5q0 1 0.5 1.5t0.5 1.5v3h2q2 0 2 1h2h1v1l1 2v1q0 1 -1 1l-2 -1h-3q-2 0 -3 -1h-4v-1v-3v-3q0 -1 -0.5 -2t-0.5 -2v-4v-3v-3v-1q0 -1 1 -2v-1h1h3q1 1 3 1q1 0 2 1h1q1 0 1 1v1v2h-1h-2q-1 0 -1 -0.5t-1 -0.5h-3v2q0 1 0.5 1.5t0.5 1.5q1 1 3 1t3 1t1 2v2h-1h-2z
M376 199q-1 1 -1 1.5t-1 1.5q0 2 -2 2q-1 1 -3 1q-1 1 -3 1t-2 -1h-2l-1 -1v-4v-4q-1 -2 -1 -5v-4v-4v-2v-1q1 0 2 -1h1h1v2v3h4q1 1 1.5 1t1.5 1l3 3q1 2 1 2.5t1 2.5v5zM340 186l2 1l2 2q0 1 0.5 1t0.5 1q1 1 1 3v5q0 1 -0.5 1.5t-0.5 1.5q-2 2 -3 2q0 1 -2 1q-1 1 -3 1
q-1 0 -1.5 -0.5t-1.5 -0.5h-2v-1q0 -1 -0.5 -1.5t-0.5 -2.5v-4v-5v-4q-1 -2 -1 -4v-2l1 -1l1 -1h1h1v2q0 1 0.5 1t0.5 1q1 0 1 -0.5t1 -0.5q1 -1 3 -1q0 -1 2 -1q0 -1 1 -1h1l1 1l1 1q-1 1 -3 2zM305 193q-1 0 -1.5 -0.5t-2.5 -0.5q1 2 1 4v3q1 0 1.5 0.5t1.5 0.5h2q1 0 2 1
h1l1 1v1v2v1q-1 0 -1 -0.5t-1 -0.5h-4q-1 0 -1.5 -0.5t-2.5 -0.5h-4v-4v-5v-4q-1 -2 -1 -5v-3v-2l1 -1l1 -1h1h1v3q1 2 1 6h3q1 0 1.5 0.5t1.5 0.5q0 2 1 2v2h-1h-2zM278 195q-1 0 -1.5 -0.5t-1.5 -0.5v3v3h2q2 0 2 1h2h1v1q1 0 1 2v1q0 1 -1 1l-1 -1h-3q-3 0 -4 -1h-4v-1
v-3v-3v-4q-1 -1 -1 -4v-3v-3v-1q0 -1 0.5 -1t0.5 -1v-1h1h3q1 1 3 1t2 1h2v1l1 1v2h-1h-1h-2q-1 0 -1 -0.5t-1 -0.5h-3q0 1 1 2v3q1 1 4 1q2 0 2 1h1v2v2h-3zM281 -9q0 1 -1 1q0 1 -1 1h-3h1l1 -1h1l1 -1v-1q1 0 1 1zM263 195q-1 0 -2 -0.5t-2 -0.5v3q0 2 1 3h2l2 1h1h1l1 1
v2v1v1q-1 0 -2 -1h-3q-2 0 -4 -1h-3v-1v-1q0 -1 -0.5 -1t-0.5 -1v-3v-4v-4v-3q-1 -1 -1 -3l1 -1v-2l1 -1h1h3q1 1 2 1q2 0 3 1h1l1 1v1v2h-1h-1h-1q-1 0 -1.5 -0.5t-1.5 -0.5h-2v2v3q2 1 4 1t2 1h1v2v2h-2zM249 183q-2 1 -4 3l2 1l2 2q1 1 1 2q1 1 1 3q2 3 0 5q0 1 -0.5 1.5
t-0.5 1.5l-2 2q-1 1 -3 1q-1 1 -3 1q-1 0 -1.5 -0.5t-1.5 -0.5h-2v-1q0 -2 -1 -4v-4v-5v-4q0 -2 -0.5 -2.5t-0.5 -1.5v-2l1 -1l1 -1h2v2q0 1 0.5 1t0.5 1q1 0 2 -1t3 -1q0 -1 2 -1q0 -1 1 -1h1l1 1l1 1zM232 201h1v1v1v2v1l-2 -1h-3q-2 0 -2.5 -0.5t-1.5 -0.5h-4
q0 -1 -0.5 -2t-0.5 -2v-5v-4v-5q-1 -1 -1 -3v-2l1 -1l1 -1h2q0 2 1 3v6h4q1 0 1 0.5t1 0.5q1 1 1 2v2h-1h-2q-1 0 -1.5 -0.5t-1.5 -0.5v4v3q1 0 1.5 0.5t1.5 0.5h2q2 0 2 1h1zM227 32l-1 -1q1 -2 4 -5l2 1zM223 37q-2 2 -2.5 3t-2.5 3l-1 -2q3 -3 4 -5zM214 48q-1 2 -4 5
l-2 -1q2 -1 2.5 -2t2.5 -3zM206 59q-2 2 -4 6l-2 -1q2 -2 4 -6zM198 70q-1 2 -2 3t-2 3l-1 -1l3 -6zM180 100l-1 -1l3 -6l1 1zM174 112h-2q1 -2 1.5 -3.5t1.5 -3.5l2 1zM174 453l3 6l-1 1l-3 -6zM181 465q1 3 3 7h-2l-3 -6zM202 501q2 2 4 6l-1 1q-2 -2 -4 -6zM210 512
q2 2 2.5 3t2.5 3l-2 1q-1 -2 -2 -3t-2 -3zM219 523q1 2 2 3t2 3l-1 1q-2 -2 -4 -6zM228 534q1 2 2 2.5t2 2.5l-1 1q-1 -2 -2 -2.5t-2 -2.5zM237 544l5 5l-1 1q-2 -1 -2.5 -2t-2.5 -3zM247 554q2 1 2.5 2t2.5 3l-1 1q-2 -2 -3 -2.5t-2 -2.5zM355 627l-6 -3l1 -1q4 2 6 2z
M351 643q-2 0 -6 -2l1 -3q2 0 6 2zM343 622q-2 -1 -3.5 -1.5t-3.5 -1.5l1 -2l6 3v2zM332 635l1 -3q4 2 7 3l-2 3zM330 616q-2 -1 -3 -2t-3 -2l1 -1l6 3zM326 632q-3 -1 -7 -3l2 -3l6 3zM318 609l-6 -3l1 -2q4 2 6 4zM313 626q-2 -1 -3 -2t-3 -2l2 -3q2 1 3 2t3 2zM306 602
q-4 -2 -6 -4l1 -1q4 2 6 4zM301 619q-2 -1 -3 -2t-3 -2l2 -3q2 1 3 2t3 2zM294 595q-2 -2 -6 -4l1 -2q2 2 6 4zM289 611q-4 -2 -5 -4l1 -2l6 3zM283 587q-2 -2 -3 -2.5t-3 -2.5l1 -1q2 1 3 2t3 2zM278 603q-4 -2 -6 -4l2 -2q4 2 6 4zM272 578q-2 -1 -3 -2t-3 -2l2 -2
q1 2 2 2.5t3 2.5zM267 595q-2 -1 -3 -2t-3 -2l2 -3q2 2 6 4zM261 569q-2 -1 -2.5 -2t-2.5 -2l1 -2l5 5zM256 586q-2 -1 -3 -2t-3 -2l3 -3q1 2 2 2.5t3 2.5zM245 577q-2 -1 -2.5 -2t-2.5 -2l2 -3q2 2 3 2.5t3 2.5zM235 568q-2 -2 -2.5 -3t-2.5 -2l3 -3q1 2 4 5zM225 558
q-2 -3 -5 -5l3 -3q2 2 2.5 3t2.5 2zM216 548q-2 -2 -2.5 -3t-2.5 -3l3 -2q1 2 4 5zM207 537q-2 -2 -2.5 -3t-2.5 -3l3 -2q1 2 2 3t2 3zM198 526q-1 -2 -2 -3t-2 -3l3 -2q2 4 4 6zM197 496q-1 -2 -2 -3t-2 -3l2 -1l3 6zM190 515q-2 -2 -4 -6l3 -2q2 4 4 6zM186 478h1q1 2 2 3
t2 3h-2zM182 503q-1 -2 -2 -3t-2 -3l3 -2q1 2 2 3t2 3zM175 491q-2 -2 -4 -6l3 -2q2 4 4 6zM170 448q-1 -2 -1.5 -3.5t-1.5 -3.5h1l3 6zM168 479q-2 -2 -4 -6l3 -2q2 4 4 6zM166 434l-2 1l-3 -6l2 -1zM165 131q-2 4 -2 7l-2 -1l3 -6h1zM158 461l3 -2l3 6l-3 2zM158 415
q2 4 2 6l-1 1l-3 -6zM160 144q-1 2 -1 3.5t-1 3.5l-2 -1q2 -4 3 -7zM152 448l3 -1l3 6l-3 1zM154 402q0 2 2 6l-2 1q-1 -2 -1 -3.5t-1 -3.5h2zM155 157q0 1 -2 7l-1 -1q0 -2 2 -6h1zM149 442q-1 -2 -1 -3.5t-1 -3.5l3 -1l3 6zM140 355q0 -2 -0.5 -3.5t-0.5 -3.5h1q1 2 1 3.5
t1 3.5h-2zM143 362q0 2 0.5 3.5t0.5 3.5h-1q-1 -2 -1 -3.5t-1 -3.5h2zM138 342q-1 -3 -1 -7h1q1 2 1 6zM136 328q0 -2 -0.5 -3.5t-0.5 -3.5h2q0 4 1 7h-2zM135 314q-1 -2 -1 -7h2v7h-1zM134 300q0 -2 -0.5 -3.5t-0.5 -3.5h2v7h-1zM133 286v-4v-3h2v3v4h-2zM133 272
q0 -2 0.5 -3.5t0.5 -3.5l1 1v6h-2zM134 259v-7h2v7h-2zM135 245q0 -5 1 -7h1v7h-2zM137 231q0 -5 1 -7h1q0 5 -1 7h-1zM139 217q0 -4 1 -7l2 1q-1 2 -1 3t-1 3h-1zM141 203q1 -2 1 -3t1 -3h1q0 2 -0.5 3.5t-0.5 3.5zM144 190q1 -2 1 -3.5t1 -3.5l2 1q-2 4 -2 6h-2zM146 375
q1 2 1 3.5t1 3.5h-2q-1 -2 -1 -3t-1 -3zM148 176q0 -2 2 -6h1q0 3 -2 7zM150 389q0 2 0.5 3t0.5 3l-1 1q-2 -4 -2 -7h2zM144 429q-2 -4 -2 -7l3 -1q2 4 2 6zM139 416q0 -3 -2 -7l3 -1l3 6zM135 402q-1 -2 -1 -3t-1 -3l3 -1q2 4 2 6zM131 389q0 -2 -0.5 -3.5t-0.5 -3.5l3 -1
q0 3 2 7zM128 375q-1 -2 -1 -3t-1 -3l4 -1q0 2 0.5 3.5t0.5 3.5h-3zM125 362q0 -2 -0.5 -3.5t-0.5 -3.5l3 -1q1 3 1 7zM123 348q-1 -2 -1 -7h3q0 2 0.5 3.5t0.5 3.5h-3zM121 334q-1 -2 -1 -7h3q0 2 0.5 3.5t0.5 3.5h-3zM119 314l3 -1q0 5 1 7l-4 1v-7zM118 300h3q0 4 1 6
l-4 1v-7zM117 286h4v7h-4v-7zM117 279q0 -5 1 -7h3v7h-4zM118 258h4q-1 2 -1 7h-3v-7zM119 244h4q-1 3 -1 7h-3v-7zM120 237q0 -4 1 -7l3 1q0 4 -1 7zM122 223q0 -4 1 -7l3 1q0 2 -0.5 3.5t-0.5 3.5zM124 210q0 -2 0.5 -3.5t0.5 -3.5h3q0 5 -1 7h-3zM126 196q1 -2 1 -3.5
t1 -3.5l3 1q0 2 -0.5 3.5t-0.5 3.5zM130 182q0 -2 0.5 -3t0.5 -3l4 1q-2 4 -2 6zM133 169q1 -2 1 -3.5t1 -3.5l3 1q0 2 -0.5 3.5t-0.5 3.5zM137 156q2 -6 2 -7l4 1q-2 4 -2 7zM142 142q1 -2 1 -3t1 -3l3 1q0 1 -2 7zM147 129q2 -4 2 -6l4 1q-1 2 -1.5 3.5t-1.5 3.5zM152 117
q1 -3 3 -7l3 2l-3 6zM164 99q-2 4 -3 7l-3 -2l3 -6zM171 87q-2 4 -4 6l-3 -1q1 -2 2 -3.5t2 -3.5zM171 119l-3 6l-2 -1l3 -6zM178 75q-2 2 -4 6l-3 -2q2 -4 4 -6zM185 64q-3 3 -4 5l-3 -2q2 -1 4 -5zM185 87q2 -2 4 -6l1 1l-3 6zM193 52q-2 2 -4 6l-3 -2q1 -2 2 -3t2 -3z
M201 41q-2 2 -4 6l-3 -3q3 -3 4 -5zM209 30q-1 2 -2 3t-2 3l-3 -3q2 -1 2.5 -2t2.5 -3zM218 20q-3 3 -4 5l-3 -2q2 -2 2.5 -3t2.5 -3zM228 10q-3 2 -5 5l-3 -3q2 -1 2.5 -2t2.5 -3zM237 0l-5 5l-2 -3q2 -1 2.5 -2t2.5 -3zM247 -10q-2 3 -5 5l-2 -2q2 -2 2.5 -3t2.5 -2z
M258 -19q-2 2 -3 2.5t-3 2.5l-2 -3q2 -1 5 -4zM247 6q0 1 1 1t2 1q2 0 2.5 0.5t1.5 0.5h5q3 0 4 1q3 0 3 1q2 0 2 1l-1 1q-1 0 -1 0.5t-1 0.5l-1 1q0 -1 -1 -1h-2q-1 0 -1.5 -0.5t-2.5 -0.5l-4 -2q-1 0 -2 -1h-1h-2q-1 0 -1.5 0.5t-1.5 0.5h-1h-2h1q1 0 1.5 0.5t1.5 0.5
q2 2 4 2q1 0 2 -0.5t2 -0.5q2 1 5 1q1 0 1.5 0.5t1.5 0.5t2 1l-1 1h-1q0 1 -1 1l-1 1h-3q-1 -1 -4 -1l-4 -2q-2 0 -2 -1h-2h-2h-2h-2l-1 1l2 1h4q1 1 3 1h2v1h-1q0 1 -1 1t-1 1h-1q-1 -1 -2 -1l1 1q1 1 1 2q-1 0 -1 1h-1h-1h-1h-2q-2 0 -2 -1q-2 0 -3 -1l-1 -1q-2 -2 0 -3h2
q1 -1 2 -1l-1 -1v-1h1q1 0 1 -0.5t1 -0.5h3h3q-1 0 -3 -2t-1 -2h2q2 0 2.5 -0.5t1.5 -0.5h2q-1 0 -3 -2l-1 -2h3h4h3h3v1h-1h-2h-3h-2h-2h-1zM268 -27q-3 3 -5 4l-2 -3q2 -1 2.5 -2t2.5 -2zM279 -35q-1 1 -2 1.5t-3 2.5l-2 -3q3 -3 5 -4zM291 -43q-4 2 -6 4l-2 -3q2 -2 6 -4
zM302 -51q-2 2 -3 2.5t-2 1.5l-2 -3q4 -2 6 -4zM303 -39l2 1h2q1 0 2 1h2q1 0 2 1h-1h-1h-2q0 -1 -2 -1h-1h-1v1q0 1 1 2v2v1h2h1v1h-1l-1 1h-2h-1v-1h-1v-1h-2q-1 0 -2 -1h-2h-2q0 -1 -1 -1q1 0 1 1l1 1q2 2 4 2q2 2 3 2l4 2q1 0 1 -0.5t1 -0.5h1h1q-1 1 -1.5 1t-1.5 1
q2 0 3 1h2v1h-1q-1 0 -1 0.5t-1 0.5h-1q-1 0 -1.5 -0.5t-2.5 -0.5h-1h-1l1 -1q-1 -1 -2 -1t-2 -1q-2 -2 -3 -2q-1 -1 -3 -1t-3 -1h-2l2 2q1 0 1.5 0.5t1.5 0.5q1 1 3 1q1 1 2 1l-1 1l-2 1h-2q-1 1 -2 1h2q1 0 2 1q3 0 4 1q1 0 2 1t2 1l-1 1l-1 1h-1q-1 0 -1 0.5t-1 0.5
l-2 -1l-4 -2q-1 -1 -2 -1t-2 -1l-2 -1h-1q-1 -1 -2 -1h-3h-1q-1 0 -1 -1v1q1 0 1 1h2q0 1 1 1l2 1h1q1 1 2 1h1l-1 1q-1 0 -1 1h-2h-1q0 -1 -1 -1v1h1v1v1l-1 1h-1h-1h-1l-2 -1h-1h-3q-1 -1 -3 -1h-2l2 1q1 1 1.5 1t1.5 1q2 0 2.5 0.5t1.5 0.5h2l-1 1h-1q0 1 -1 1h-1h-1
q-1 0 -1 -0.5t-1 -0.5h-1h-3h-2h-2h-1l2 1q1 0 1.5 0.5t2.5 0.5q1 0 1.5 0.5t1.5 0.5h2q0 1 -1 1l-1 1h-2h-1l-1 1h-1v1v1h1l-1 1h-2l-1 -1q0 -2 1 -3q1 0 2 -1l-2 -1q-1 -1 -2 -1l-2 -2v-1h3h3h3l-2 -2q-1 0 -1 -1q-1 -1 -1 -2h3q2 0 4 1h2q-1 -1 -2 -1q-1 -1 -1 -2
q-2 -2 0 -2q0 -1 2 -1h2q0 -1 -1 -1t-2 -1h-3h1v1h1h1l-1 1q-1 0 -1 -1q-1 0 -1 -1q-1 0 -1 -1h1h2q1 0 2 1h2v-1h1l2 1h3q2 0 3 1v-1q-1 0 -3 -2q-1 -1 -1 -2v-1l2 2q1 1 1.5 1t1.5 1t2 1h2q1 0 1 -0.5t1 -0.5l-2 -2l-2 -2q-1 0 -1 -0.5t-1 -0.5v-2h3q1 0 1.5 0.5t1.5 0.5
h3q-1 0 -3 -2v-3l2 1h3l1 -1v-2q1 -1 1 -2l1 -1h2zM314 -57l-6 3l-1 -3q4 -2 6 -4zM316 180q0 -1 3 -1q2 0 3 1l3 3q2 2 2 4q1 2 1 5v5q0 3 -1 4q0 1 -2 3t-4 2q-1 0 -3 -2q-1 0 -3 -2q-1 -2 -1 -2.5t-1 -2.5q0 -1 -0.5 -2t-0.5 -2v-5q0 -2 0.5 -2.5t0.5 -2.5zM327 -64
q-2 1 -3.5 1.5t-3.5 1.5l-1 -3l6 -3zM339 -70l-6 3l-2 -3q2 -1 3.5 -1.5t3.5 -1.5zM352 -75q-4 2 -7 2l-1 -3q4 -2 6 -2zM365 -80q-4 2 -7 2l-1 -3q4 -2 7 -2zM378 -84q-3 0 -7 2l-1 -4q3 0 7 -2zM391 -88q-1 0 -7 2v-4q2 0 3 -0.5t3 -0.5zM394 -75q1 1 1.5 1t1.5 1q1 0 2 1
q0 1 -1 1v-1q-1 0 -2 -1q-1 0 -1 -0.5t-1 -0.5l-2 -1l-1 -1q-1 0 -1 -1l1 2q1 1 1 1.5t1 1.5l2 2l3 3q1 0 1 0.5t1 0.5q1 1 2 1l-1 1h-1h-2h-1l-1 -1l-1 -1q0 -1 -0.5 -1t-0.5 -1q-1 0 -1 -1t-1 -1v2v1h-1h-1h-1h-1q0 -1 -0.5 -1t-0.5 -1l-2 -2h-1q-1 0 -1 -0.5t-1 -0.5
t-1 -0.5t-1 -0.5t-1 -0.5t-1 -0.5q0 1 -1 2h2q1 1 3 1l2 2q1 0 1 0.5t1 0.5v2v1h-1l-1 1h-1h-1q-1 0 -2 -1q-1 0 -2 -1l-1 -1h-1h-1q0 -1 -1 -1l1 2l1 1q0 1 1 1q1 1 2 1h-1l-1 1h-1h-1l-1 -1q0 -1 -1 -2l-2 -1l-2 -2h-2q0 -1 -2 -1l1 1q0 1 0.5 1t0.5 1t0.5 1t0.5 1
q1 0 2 1t2 1q0 1 1 1h-1l-1 1h-1h-1l-2 -2q-1 -1 -2 -1t-1 -0.5t-1 -0.5t-2 -1q-1 0 -2 -1h-1l2 2q1 1 1.5 1t1.5 1l2 2l2 1h1h-1l-1 1h-1h-2l-1 -1h-1l-1 1h-1v1l1 1h-1q-1 0 -1 -1h-1l-1 -1h1v-1h-1q-1 -1 -3 -1q0 -1 -2 -1q-1 0 -1 -0.5t-1 -0.5h-2l-1 2h3h2q1 1 2 1l2 2
l1 1q0 2 -1 2l-1 1h-2h-1h-1q-1 -1 -2 -1l-2 -2h-2q0 -1 -1 -1h-1v1v2v2v1h2q1 1 2 1h-1l-1 1h-1h-1h-1h-1v-1h-1v-1l-1 -1h-2q-1 -1 -3 -1h-2q-1 -1 -2 -1v2h2q1 0 2 1h3l2 2v1v2h-1h-1q0 1 -1 1h-1h-2l-2 -1l-1 -1h-1l-2 -1h-2q-1 0 -1 -0.5t-1 -0.5h-1l2 2q1 0 3 2
q1 0 1.5 0.5t1.5 0.5q1 1 2 1q-1 0 -1 1h-1h-2h-1h-1h-1q0 1 -1 1v1h1l-1 1l-1 -1h-1h-1v-1l2 -2q1 0 2 -1l-2 -1q0 -1 -0.5 -1t-0.5 -1l-2 -2l1 -1h2q1 1 4 1l2 1q-1 0 -1 -1v-3v-2q0 -1 1 -1h2q1 1 3 1q1 0 1.5 0.5t1.5 0.5l2 1h1v-2v-3v-1v1q-1 0 -1 1l-2 2v1l-1 -1v-1
q1 0 1 -2q1 0 1 -1q1 -1 1 -2q1 0 1 0.5t1 0.5q2 0 2 1q2 0 2 1h1v-1v-2v-2q0 -1 1 -1h2q1 0 1.5 0.5t1.5 0.5t2 1q2 0 3 1h2v1v-1h3l-1 -1q0 -1 -1 -1l-2 -2v-2q-1 -1 0 -2l2 1l4 2q1 0 1.5 0.5t1.5 0.5q-1 0 -1 -1q-1 -1 -1 -3v-2q1 -1 2 0q2 0 3 1l2 1q2 2 2 1v-1l1 -1h1
q0 1 1 1l-1 -1q0 -2 1 -3v-2q0 -1 1 -1t2 1q2 0 3 1q1 0 1 0.5t1 0.5v-1l-1 -2q0 -1 1 -2h2l1 1h1l1 1v-2v-1l2 1q1 1 1.5 1t1.5 1zM405 -91q-2 0 -3.5 0.5t-3.5 0.5l-1 -3q2 -1 3.5 -1t3.5 -1zM403 181q1 -1 2 -1q0 -1 1 -1h1l1 1q1 0 1 1l-2 2q-1 1 -2 1.5t-2 1.5q1 0 2 1
l2 2l2 2v3q2 3 0 5q0 2 -1 3l-2 2q-1 1 -3 1q-1 1 -3 1q-1 0 -1.5 -0.5t-1.5 -0.5h-1l-1 -1v-4q-1 -1 -1 -4v-5v-4q0 -3 -1 -4v-2l1 -1l1 -1h2q0 1 1 2v2q1 0 2 -1t3 -1zM418 -94q-2 0 -3.5 0.5t-3.5 0.5v-3q2 -1 7 -1v3zM432 -96q-2 0 -3.5 0.5t-3.5 0.5l-1 -4h7zM445 -98
q-2 1 -6 1l-1 -3q3 -1 7 -1v3zM459 -98h-7v-4h7v4zM473 -99h-7v-3h7v3zM474 -81h-1h-1q0 -1 -1 -2l-1 -1l-2 -2l-1 -1q-1 0 -1 -1v1q0 1 0.5 1t0.5 1t2 3q0 1 1 2l2 2h-1h-1h-1q-1 0 -1 -1h-1v-2l-1 2v1h-1h-1h-1l-1 -1q0 -1 -1 -2v-1q-2 0 -2 -2q-1 -1 -1.5 -1t-1.5 -1
q0 -1 -1 -1l1 2q0 1 2 3q0 1 0.5 1.5t0.5 1.5q1 1 2 1h-1h-2h-2q-1 -1 -2 -1t-1 -1l1 1q1 1 2 1l-1 1h-1h-1q-1 0 -1 -0.5t-1 -0.5v-1q-1 0 -1 -2h-1l-2 -2l-2 -2q-1 -1 -2 -1l1 2q2 2 2 3q2 2 2 3q1 0 2 1h-1h-1h-1h-1q-1 0 -1 -1t-0.5 -1t-0.5 -1v-1h-1q0 -1 -0.5 -1
t-0.5 -1q-2 0 -2 -1q-1 0 -1 -0.5t-1 -0.5v-1v1l1 1q0 1 0.5 1.5t0.5 1.5q2 2 2 3l2 2l2 2q1 1 1 2h-1h-2h-1q0 -1 -1 -1q0 -1 -1 -2l-1 -1q0 -1 -0.5 -1t-0.5 -1v-1v2v1h-1h-1h-1l-1 -1q-1 0 -1 -2l-2 -2h-1l-2 -2l-2 -1l-1 -1q0 1 -1 2l2 1l2 1q1 0 1 0.5t1 0.5q1 1 1 2v2
v1h-1h-1h-1q-1 1 -1 0h-2q0 -1 -0.5 -1t-0.5 -1q-1 0 -1 -0.5t-1 -0.5l-2 -2l-1 -1q-1 0 -1 -0.5t-1 -0.5l-1 -1q1 0 1 1t1 2l2 2q0 1 2 3q1 0 2 1h-2q0 2 -2 0h-2q-1 0 -1 -0.5t-1 -0.5h-1l2 1l1 1h-1h-2h-2q-1 0 -1 -0.5t-1 -0.5h-1l2 1l1 1h-1h-1h-1h-1l-1 -1l-1 -1
q-1 -1 -1 -1.5t-1 -1.5l-1 -2v-2v-1l1 2l2 2q0 1 0.5 1t0.5 1q2 0 2 1h2h1l-2 -2q0 -1 -1 -2q0 -1 -0.5 -1.5t-0.5 -1.5l1 -1l1 2l1 2l2 1q0 1 0.5 1t0.5 1h2h1l-1 -2l-2 -2v-3v-2q1 0 3 2l2 2q1 0 1 0.5t1 0.5l-1 -1q0 -1 1 -2q0 -1 1 -2q0 -1 1 -1t1 0.5t1 0.5t2 1t1.5 1
t1.5 1q-1 0 -1 -1v-2q0 -1 1 -2h2q0 1 1 1l1 1h1v-1v-2l2 2q1 1 1.5 1t1.5 1q0 1 1 1l-1 -2v-2l1 -1l2 1q0 1 2 3q1 0 1 0.5t1 0.5q-1 -1 -1 -2v-2v-2l1 2q0 1 0.5 1.5t0.5 1.5l2 2l1 1q1 0 1 0.5t1 0.5h1q-1 0 -1 -1v-2q-1 0 -1 -2q-1 -1 -1 -3l1 -1l2 2q1 0 3 2l1 1l-1 -2
v-2l2 -2l2 2q1 0 2 1v-2v-1q2 0 2 2l3 3l2 2zM479 180v3q-1 1 -1 4q0 2 -0.5 3t-0.5 2q0 4 -1 6v4q-1 1 -1 2v1h-2h-1q-1 0 -1 0.5t-1 0.5h-1v-1q-1 -1 -1 -3q0 -1 -0.5 -2t-0.5 -2q0 -2 -0.5 -3t-0.5 -3q-1 -1 -1 -4q-1 -2 -1 -5q-1 -1 -1 -2l1 -1l1 -1h1h1v2q1 0 1 1
q1 1 3 1h3v-2q1 0 1 -1l1 -1h1h2v1zM487 -102v3h-7v-3h7zM494 -102q2 0 3.5 0.5t3.5 0.5v3h-7v-4zM508 -101q2 1 7 1l-1 3h-7zM522 -99q2 0 3 0.5t3 0.5v3q-5 0 -7 -1zM535 -97q3 1 7 1l-1 4q-2 -1 -6 -1v-4zM549 -94q3 0 7 2l-1 3q-2 -1 -3.5 -1t-3.5 -1zM559 -72q1 1 1 2
t-1 1v-2q-1 -1 -1 -1.5t-1 -1.5q0 -1 -0.5 -1.5t-0.5 -1.5q-1 0 -1 -1v1v1v1v1q0 1 0.5 1.5t0.5 1.5v1q1 1 1 2l1 1h-1l-1 -1h-1q-1 0 -1 -1v-1l-1 -1v-2v-1v-1v-1q0 -1 -1 -1q0 -1 -1 -1v-1l-1 -1l-1 2v2q1 1 1 2t0.5 1.5t0.5 1.5l1 1q0 1 1 2l-1 -1h-1q-1 0 -1 -1h-1v-1
q-1 -1 -1 -2v-1l-1 -1l-1 -1q0 -1 -1 -2t-1 -2q-1 0 -1 -1v1q0 1 1 2q0 2 1 3q0 2 1 3q0 1 1 2h-1h-1l-1 -1h-1v-1q-1 0 -1 -1h-1h-1h-1q0 1 1 1h-2v-1l-1 -1v-1h1q0 -1 -1 -2t-1 -1.5t-1 -1.5l-1 -2l-1 1l2 2q0 1 0.5 1.5t0.5 1.5v2q0 2 -2 2q0 -1 -1 -1h-2q-1 -1 -1 -1.5
t-1 -1.5v-2q0 -2 1 -3l1 -1l-2 -1l-1 -1q-1 0 -1 2q0 1 0.5 1.5t0.5 1.5q0 2 1 3q0 1 0.5 1.5t0.5 1.5h-1l-1 -1q-1 0 -1 -1q-1 0 -1 -1t-0.5 -1t-0.5 -1v-1q-1 0 -1 -2q-1 0 -1 -0.5t-1 -0.5q0 -2 -1 -2v-1v1v1v2q1 0 1 1v2q1 0 1 2l1 1l1 1h-1h-1l-1 -1h-1q0 -1 -1 -1v-2
v1l-1 1v1h-1h-1v-1h-1l-1 -1v-2q-1 0 -1 -2l-1 -1l-2 -2l-2 -2l-1 -1l-1 2l1 1q1 0 2 1l2 2q0 1 1 2q0 1 -1 2v1h-1h-1h-2v-1q-1 0 -2 -1l-1 -1q0 -1 -1 -2l-2 -2q0 -1 -0.5 -1t-0.5 -1q-1 0 -1 -1l-1 -1l1 2q0 2 0.5 2.5t0.5 1.5q1 1 1 1.5t1 1.5l2 1h-1h-1h-2l-1 -1l-1 -1
h-1h-1q-1 0 -1 1l1 1l-1 -1q-1 0 -1 -1q-1 0 -1 -1v-1h1q-1 0 -1 -1l-2 -2l-1 -2q-1 0 -1 -1q-1 0 -1 -1v1q0 1 1 2v1v1q1 0 1 2q1 0 1 1q1 1 1 2h1l-1 1h-1q0 -1 -1 -1h-1l-1 -1v-2v1l-1 1v1h-1h-1h-1q0 -1 -1 -1q0 -1 -1 -2q0 -2 -1 -2v-3v-2q0 -1 1 -2q1 0 2 1t2 1
q-1 0 -1 -1t-1 -2q0 -1 -1 -2v1v1l1 1h-1q0 -1 -1 -2v-1l1 -1l1 1l1 1l1 1q0 1 1 2v-1l2 2t2 3l3 3l1 1h1h2l-1 -2v-3q-2 0 0 -2v-1l2 2l3 3l1 1v-1q0 -1 1 -2q2 -2 3 -2l2 1q0 1 0.5 1t0.5 1l2 2l1 1q-1 -1 -1 -2t1 -2q0 -1 1 -1q2 0 2 1q1 0 1 1v-1q0 -1 -1 -2
q0 -1 -0.5 -1t-0.5 -1v-1v1v1l1 1v1l-1 -1v-1q-1 -1 -1 -2h1q0 -1 1 0l1 1q0 1 0.5 1t0.5 1t1 2v-1l2 2q1 1 1 1.5t1 1.5q0 1 1 2v-1l1 -2v-2l1 -1q1 0 1.5 0.5t1.5 0.5q2 2 2 3q1 0 1.5 -0.5t1.5 -0.5l1 2q1 1 1 1.5t1 1.5l1 2v1h1h2v-2v-3v-2l1 -1l1 2q2 2 2 3q1 1 1 2v-2
q0 -1 0.5 -1t0.5 -1t2 -1l1 1q1 0 1 1v-3q0 -1 -0.5 -1t-0.5 -1v-1v1v1v1q0 1 1 1l-1 -1q-1 0 -1 -1v-2h1h1q0 1 1 2v2q1 0 1 1h1l1 2q1 1 1 1.5t1 1.5q0 1 0.5 1.5t0.5 1.5zM563 -91q4 2 6 2l-1 4q-4 -2 -6 -2zM576 -87q4 2 6 2l-1 4q-4 -2 -6 -2zM589 -82q1 0 7 2l-2 3
q-2 0 -6 -2zM602 -77q2 1 3 1t3 1l-1 4l-6 -3zM613 -55l1 2l1 1v2l1 1h-1l-1 -1v-1l-1 -1v-1l-1 1v2v2q0 1 1 1h-1h-1l-1 -1l-1 -1l1 -1v-2v-2q0 -1 -1 -2v-2q0 -1 -1 -2v1l-1 1v3q0 2 1 3v2q-1 0 -1 -1h-1l-1 -1q0 -2 -1 -3v-3q0 -1 -0.5 -1.5t-0.5 -1.5l-1 -1v2v4
q0 1 0.5 1.5t0.5 1.5t1 2h-1l-1 -1h-1l-1 -1v-1v-2q-1 -1 -1 -2v-1q-1 0 -1 -1v2q-1 0 -1 2l1 1q0 1 1 2h-1q-1 0 -1 -1h-1l-1 -1v-2v-1v-2q0 -2 -1 -2v-2q-1 -1 -1 -2l-1 2v3q0 1 0.5 1.5t0.5 1.5t1 1h-1h-1q-1 0 -1 -1q-1 0 -1 -1v-2q-1 -1 -1 -3q0 -1 -0.5 -1.5
t-0.5 -1.5l-1 -1v2v4q0 1 0.5 1.5t0.5 1.5t1 2h-1l-1 -1h-1l-1 -1v-1v-2q-1 -1 -1 -2l-1 -1v-1l-1 2v2l1 2l1 1h-1h-1l-1 -1q-1 0 -1 -1v-1v-2v-2q0 -1 -0.5 -1t-0.5 -1t-1 -2q0 -1 -1 -2v3v3l1 2q0 1 1 2h-1h-1l-1 -1q-1 0 -1 -1l-1 -2v-3q-1 -1 -1 -1.5t-1 -1.5
q0 -1 -1 -2v1q0 1 1 2v4q0 2 1 3q0 1 0.5 1t0.5 1h-1q0 -1 -1 -1h-1q0 -1 -1 -1v-1v-3q-1 0 -1 -2q0 -1 0.5 -1.5t0.5 -1.5v-1l1 -1q1 0 1 1q1 0 1 1q1 1 1 3l1 1v1l1 -2v-2l1 -1v-1l2 2l1 2v2q1 1 1 2h1q0 -1 1 -1l1 1q0 1 1 2v-1v-2q0 -1 1 -2q0 -1 1 -1l1 1l1 2l1 2
q0 1 1 2v-2v-1l1 -1q0 -1 1 -1l1 1q1 1 1 2t0.5 1.5t0.5 1.5v2l1 -1h1l1 1q0 1 1 2v-1v-2q1 -1 1 -2l1 -1q1 0 1 1q1 1 1 2t0.5 1t0.5 1v2q0 1 1 1v-2q0 -1 1 -2v-1q1 0 1 -1q1 0 1 2q1 1 1 2t0.5 1t0.5 1v3l1 -1zM621 -69l-1 3q-3 -1 -7 -3l2 -3zM622 -54v1h-1l-1 -1
q0 -1 1 -1h1v1zM624 185q1 1 1.5 1t1.5 1t1 2t1 2v3q0 2 0.5 2.5t0.5 1.5v3q1 1 1 3h-1q0 1 -1 1t-1 0.5t-1 0.5l-1 -1q0 -4 -1 -6q0 -4 -1 -7q0 -1 -1 -2l-1 -1l-1 1v2q0 2 0.5 4t0.5 4v2q0 1 1 1v1q-1 0 -1 1h-2l-1 1h-1l-1 -1v-3v-3q0 -1 -0.5 -1.5t-0.5 -2.5v-4
q0 -1 0.5 -1.5t0.5 -1.5q2 -2 3 -2v-3q-1 -1 -1 -2l1 -1l1 -1h2q0 1 1 3v3zM633 -63l-1 4q-2 -2 -6 -4l1 -3zM646 -56l-2 3l-6 -3l2 -3zM652 -52q4 2 5 4l-1 2l-6 -3zM663 -45q2 2 6 4l-2 3q-4 -2 -6 -4zM673 -25q0 1 -1 2h1v1l1 2v3v4q1 1 1 2h-1v-2q-1 -1 -1 -3v-3v-2
l-1 1v1v1l-1 1v2v2v2v1q-1 0 -1 -1q-1 0 -1 -1q-1 0 -1 -1v-1v-1q1 -1 1 -2v-1q0 -1 1 -1v-1v-1v-2q-1 0 -1 -1v-1q-1 0 -1 1q-1 1 -1 2q0 2 -1 3v2v3q1 0 1 1l-1 -1h-1v-1l-1 -1v-1v-2v-1v-1v-2v-2q0 -1 -1 -2v-1h-1q-1 0 -2 1v3q0 1 0.5 1.5t0.5 1.5v2q1 1 1 2h-1
q0 -1 -1 -1l-1 -1l-1 -1v-2v-3l-1 1l-1 1v1v1q-1 0 -1 -1q-1 0 -1 -1l-1 -1l2 -2v-3q-1 -1 -1 -2v-3h-1v3v3q0 2 -1 2q0 1 -2 1t-2 -2q-1 -1 -1 -3v-3q2 0 2 -2h2l-1 -2q-1 0 -2 -1l-1 2q0 2 -1 3v3q0 1 1 2h-1h-1q0 -1 -1 -1v-1v-2v-2v-1l-1 -2q0 -2 -1 -2v-3q-1 0 -1 -1
h-1q-1 0 -1 1l-2 2q0 2 1 3q0 1 1 2h1q0 -1 1 -1v-1l1 1v1q-1 1 -1 2q-1 1 -2 1l-1 -1q-1 0 -1 -1h-1q0 -1 -1 -2v-2v-2q0 -2 -1 -2v-2q0 -1 -1 -2v-1v2q-1 1 -1 3v4v3q0 1 0.5 1.5t0.5 1.5v1h-1l-1 -1l-1 -1v-1v-2v-2v-3l-1 2h-1h-1q0 -1 -1 -1v-1l-1 -1v-2v-2q1 -1 1 -3
q0 -1 0.5 -1t0.5 -1h2l1 1l1 1v1l1 1v-1l1 -1q1 0 1 2q1 1 1 4v1q1 0 1 -1l2 -1l2 -1h1q1 1 1 2t0.5 1.5t0.5 1.5t1 2v2h1q0 -2 1 -2q0 -1 0.5 -1t0.5 -1h2l2 2v2q0 1 1 1h1q1 0 2 1v2v3q1 1 1 2q1 0 2 -1v-4q1 0 2 -1l-1 1q0 3 1 3l2 -1h2v3q1 1 1 3v1l1 -1q0 -1 1 -2h2
q1 0 1 2l1 1v-3q0 -1 0.5 -1t0.5 -1v-1l-1 1v1v1v1l-1 -1v-2l1 -1v-1q1 0 1 2l1 1v2zM675 -37q3 3 5 4l-2 3q-2 -1 -2.5 -2t-2.5 -2zM683 -15q0 1 -1 1t-1 -1v-1h1h1v1zM686 -28q2 1 2.5 2t2.5 2l-2 3l-5 -5zM697 -19q3 3 5 4l-2 3q-2 -2 -3 -2.5t-3 -2.5zM707 -10q3 2 5 5
l-2 2q-3 -2 -5 -5zM715 15v2v4q0 3 -1 4v2h-1l1 -1v-2v-2v-3v-1v-2q-1 0 -1 1v2q-1 1 -1 1.5t-1 1.5v3v2v1l-1 -1l-2 -2q0 -2 -1 -2v-4v3v1q-1 0 -1 -1q-1 0 -1 -0.5t-1 -0.5q0 -2 -1 -3v-3v2v2h-1q0 -1 -1 -1v-1q-1 -1 -1 -2v-1q1 0 1 -2v-1v-1v-3v-2h-1v3v3q-1 0 -1 0.5
t-1 0.5q0 1 -2 1q-1 -1 -1 -1.5t-1 -1.5v-3q0 -2 1 -2q0 -2 2 -2h1v-2q0 -1 -1 -2l-2 2q0 1 -0.5 1.5t-0.5 1.5t-0.5 1.5t-0.5 1.5v3v-1q-1 0 -1 -1l-1 -1v-1v-2l1 -2q0 -1 -0.5 -1.5t-0.5 -1.5v-2v-2q-1 -1 -1 -2t-1 0h-1l-2 2v3q0 1 1 2q0 1 1 0h1v-1l1 1l-1 1q0 1 -1 2
l-1 1l-1 -1l-1 -1l-1 -1q0 -1 -0.5 -1t-0.5 -1v-2q0 -2 1 -3l1 -2q1 0 1 -0.5t1 -0.5h4v3q1 0 1 2v3v2q1 0 1 -1l1 -1q1 -1 2 -1q0 -1 1 -1q2 0 2 3l1 2v1l2 1v3v2q1 0 1 -1l2 -2h1l-1 2q0 1 -1 2v3v2v1q0 1 1 1l1 -2q0 -1 0.5 -1.5t0.5 -1.5q1 0 1 -0.5t1 -0.5q0 -1 1 -1h1
l-2 2q0 1 -1 2v3v2v2q1 0 1 1v-1q0 -2 1 -2q0 -1 0.5 -1t0.5 -1l2 -2h2zM717 -1q2 2 2.5 3t2.5 2l-2 3q-2 -2 -3 -2.5t-2 -2.5zM719 25q2 2 2 2.5t2 2.5l-1 1q-3 -3 -4 -5zM727 9q2 2 2.5 3t2.5 3l-3 2q-1 -2 -2 -2.5t-3 -2.5zM733 45l2 -1q3 3 4 5l-1 1zM741 25l-3 2
q-3 -3 -4 -5l2 -2zM746 61q-1 -2 -2 -2.5t-2 -2.5l1 -1q3 3 4 5zM745 31q2 1 2.5 2t2.5 3l-3 2q-3 -3 -4 -5zM754 73q-2 -2 -4 -6l1 -1q2 2 4 6zM754 42q3 3 4 5l-3 2q-1 -2 -2 -2.5t-2 -2.5zM759 78l3 6l-1 1q-2 -4 -4 -6zM762 53q1 2 2 3t2 3l-3 2q-1 -2 -2 -3t-2 -3z
M766 90l3 6l-1 1q-2 -4 -4 -6zM773 71l-3 1l-3 -6l3 -1zM777 76q1 4 4 7l-4 1l-3 -6zM787 95l-3 1l-3 -6l3 -1zM793 107l-3 2l-3 -6l3 -2zM799 120l-3 1l-3 -6l3 -1zM802 126q2 4 2 7l-3 1q-1 -2 -1 -3t-1 -3zM807 139q2 4 2 7l-3 1q-2 -4 -2 -6zM812 152q0 3 2 7l-4 1
q0 -2 -2 -6zM816 166q0 2 2 6l-4 1q0 -2 -2 -6zM819 179q2 4 2 7l-3 1q-1 -2 -1 -3.5t-1 -3.5zM823 193q0 2 0.5 3t0.5 3l-3 1q-1 -2 -1 -3.5t-1 -3.5h4zM825 206q1 2 1 3.5t1 3.5l-4 1q0 -5 -1 -7zM828 220q0 5 1 7h-4q0 -4 -1 -6zM830 241h-3q0 -2 -0.5 -3.5t-0.5 -3.5h4
v7zM831 248q0 4 1 7h-4v-7h3zM832 269h-3v-7h3v7zM832 275v5h-3v-4z" />
    <glyph glyph-name="bullet" unicode="&#x2022;" horiz-adv-x="833" 
d="M421 475q31 0 58.5 -10t48 -27t32.5 -40t12 -49t-12 -49t-32.5 -40t-48 -27t-58.5 -10t-58.5 10t-48 27t-32.5 40t-12 49t12 49t32.5 40t48 27t58.5 10z" />
    <glyph glyph-name="multiply" unicode="&#xd7;" horiz-adv-x="553" 
d="M429 292q-2 -1 -16 -12t-36.5 -28.5t-52 -40.5t-61.5 -47q27 -31 52.5 -60.5t45 -52.5t32 -37.5t14.5 -15.5q-8 -5 -21 -13.5t-24 -12.5q-1 1 -13 15t-31 36t-43.5 50.5t-51.5 59.5q-33 -26 -63.5 -49.5t-54.5 -42.5t-39.5 -31t-17.5 -13q-5 8 -12.5 21t-10.5 24
q1 1 15 12t37 29t52 41t61 47q-27 31 -52 60t-44.5 52t-32.5 37.5t-14 16.5q8 5 21 13.5t24 11.5q1 -1 13 -15t31 -36t43.5 -50.5t50.5 -58.5q33 25 64 49t55 43t39.5 30.5t17.5 13.5q5 -8 12.5 -21.5t10.5 -24.5z" />
    <glyph glyph-name="divide" unicode="&#xf7;" horiz-adv-x="651" 
d="M30 198h38h88.5h113t113.5 -0.5t89.5 -0.5h39.5q-2 -9 -4 -24.5t-6 -26.5h-38.5t-88 0.5t-113.5 1t-113.5 0.5h-89h-39.5q1 9 3 24.5t7 25.5zM344 335q0 -5 -0.5 -15t-1 -22t-1 -22.5t-1.5 -15.5h-152v14.5t0.5 22t1 22.5t1.5 16h153zM172 0q0 4 0.5 14.5t1 22.5t1 22.5
t1.5 15.5h152v-15t-0.5 -22t-1 -22.5t-1.5 -15.5h-153z" />
    <glyph glyph-name="minus" unicode="&#x2212;" horiz-adv-x="589" 
d="M437 265q0 -9 -1.5 -24.5t-3.5 -25.5q-74 1 -145 1.5t-126.5 0.5t-90 -0.5t-35.5 -0.5q0 9 1.5 24.5t3.5 26.5z" />
    <glyph glyph-name="guillemotleft" unicode="&#xab;" horiz-adv-x="460" 
d="M106 251l112 -51q-4 -8 -11.5 -22t-12.5 -23l-167 75q0 4 -0.5 18.5t-0.5 25.5l180 69q2 -9 6.5 -24t6.5 -25zM280 246l113 -50q-4 -8 -11 -22.5t-13 -22.5l-167 75q-1 4 -1 18.5t-1 25.5l180 68q3 -8 8 -23t7 -25z" />
    <glyph glyph-name="guillemotright" unicode="&#xbb;" horiz-adv-x="489" 
d="M254 294q2 10 7 25t7 24l179 -71q0 -11 -0.5 -25.5t-1.5 -18.5l-167 -73q-5 9 -12 23t-12 22l113 49zM79 292q2 10 6.5 24.5t8.5 23.5l179 -70q-1 -11 -1.5 -25.5t-0.5 -18.5l-168 -73q-6 8 -13 22.5t-10 22.5l113 49z" />
    <glyph glyph-name="guilsinglright" unicode="&#x203a;" horiz-adv-x="343" 
d="M88 290q2 9 7 24t9 24l178 -74q-1 -11 -2 -25.5t-1 -18.5l-169 -70q-6 9 -12.5 23t-10.5 22l114 48z" />
    <glyph glyph-name="guilsinglleft" unicode="&#x2039;" horiz-adv-x="264" 
d="M108 243l114 -47q-3 -8 -10 -22.5t-12 -22.5l-170 68q0 4 -1 18.5t-2 25.5l177 76q4 -9 9.5 -24t7.5 -24z" />
    <glyph glyph-name="degree" unicode="&#xb0;" horiz-adv-x="241" 
d="M137 646q29 0 49 -17t20 -41q0 -23 -20 -40t-49 -17q-28 0 -48 17t-20 40q0 24 20 41t48 17zM137 568q11 0 18 6t7 14q0 9 -7 15t-18 6q-10 0 -17 -6t-7 -15q0 -8 7 -14t17 -6z" />
    <glyph glyph-name="ring" unicode="&#x2da;" horiz-adv-x="836" 
d="M421 588q29 0 49 -17t20 -41q0 -23 -20 -40t-49 -17t-49 17t-20 40q0 24 20 41t49 17zM421 510q11 0 18 6t7 14q0 9 -7 15t-18 6t-18 -6t-7 -15q0 -8 7 -14t18 -6z" />
    <glyph glyph-name="grave" unicode="`" horiz-adv-x="797" 
d="M502 522q-2 -9 -5.5 -24t-7.5 -25l-201 37q2 9 6 24t7 25z" />
    <glyph glyph-name="acute" unicode="&#xb4;" horiz-adv-x="797" 
d="M490 559q3 -10 7 -25t6 -24l-201 -37q-4 10 -7.5 25t-5.5 24z" />
    <glyph glyph-name="circumflex" unicode="&#x2c6;" horiz-adv-x="812" 
d="M492 522q-2 -9 -6.5 -24l-7.5 -25l-69 18l-74 -19q-2 9 -5 24t-5 26l83 20v-1v2l84 -21v0z" />
    <glyph glyph-name="dieresis" unicode="&#xa8;" horiz-adv-x="801" 
d="M490 524v-24.5t-1 -26.5h-72q0 9 0.5 24.5t1.5 26.5h71zM313 473v24.5t1 26.5h70v-24.5t-1 -26.5h-70z" />
    <glyph glyph-name="tilde" unicode="&#x2dc;" horiz-adv-x="832" 
d="M504 529q2 -8 5.5 -23.5t4.5 -25.5q-1 -1 -11 -3t-27 -3q-17 -2 -36 0t-38 5q-38 6 -64 6q-13 -1 -20.5 -2.5t-8.5 -1.5q-2 8 -4.5 23.5t-2.5 26.5q1 0 11 2t26 2q17 1 36 -1.5t38 -4.5q18 -3 34.5 -4.5t28.5 -0.5q13 1 20 3t8 2z" />
    <glyph glyph-name="agrave" unicode="&#xe0;" horiz-adv-x="579" 
d="M540 451q8 -7 16 -13q6 -5 12.5 -11t9.5 -10l-244 -417h-294h-1q-8 5 -20 14.5t-19 17.5q49 85 88 151q16 28 32 55t29 48t20.5 34.5l7.5 13.5h294l39 67h-133h-49.5h-43.5h-31h-13q-7 10 -10 25.5t-5 24.5h315zM442 284h-235l-138 -234h236zM520 522q-2 -9 -5.5 -24
t-7.5 -25l-201 37q2 9 6 24t7 25z" />
    <glyph glyph-name="aacute" unicode="&#xe1;" horiz-adv-x="579" 
d="M540 451q8 -7 16 -13q6 -5 12.5 -11t9.5 -10l-244 -417h-294h-1q-8 5 -20 14.5t-19 17.5q49 85 88 151q16 28 32 55t29 48t20.5 34.5l7.5 13.5h294l39 67h-133h-49.5h-43.5h-31h-13q-7 10 -10 25.5t-5 24.5h315zM442 284h-235l-138 -234h236zM512 559q3 -10 7 -25t6 -24
l-201 -37q-4 10 -7.5 25t-5.5 24z" />
    <glyph glyph-name="acircumflex" unicode="&#xe2;" horiz-adv-x="579" 
d="M540 451q8 -7 16 -13q6 -5 12.5 -11t9.5 -10l-244 -417h-294h-1q-8 5 -20 14.5t-19 17.5q49 85 88 151q16 28 32 55t29 48t20.5 34.5l7.5 13.5h294l39 67h-133h-49.5h-43.5h-31h-13q-7 10 -10 25.5t-5 24.5h315zM442 284h-235l-138 -234h236zM502 522q-2 -9 -6.5 -24
l-7.5 -25l-69 18l-74 -19q-2 9 -5 24t-5 26l83 20v-1v2l84 -21v0z" />
    <glyph glyph-name="atilde" unicode="&#xe3;" horiz-adv-x="579" 
d="M540 451q8 -7 16 -13q6 -5 12.5 -11t9.5 -10l-244 -417h-294h-1q-8 5 -20 14.5t-19 17.5q49 85 88 151q16 28 32 55t29 48t20.5 34.5l7.5 13.5h294l39 67h-133h-49.5h-43.5h-31h-13q-7 10 -10 25.5t-5 24.5h315zM442 284h-235l-138 -234h236zM511 529q2 -8 5.5 -23.5
t4.5 -25.5q-1 -1 -11 -3t-27 -3q-17 -2 -36 0t-38 5q-38 6 -64 6q-13 -1 -20.5 -2.5t-8.5 -1.5q-2 8 -4.5 23.5t-2.5 26.5q1 0 11 2t26 2q17 1 36 -1.5t38 -4.5q18 -3 34.5 -4.5t28.5 -0.5q13 1 20 3t8 2z" />
    <glyph glyph-name="adieresis" unicode="&#xe4;" horiz-adv-x="579" 
d="M540 451q8 -7 16 -13q6 -5 12.5 -11t9.5 -10l-244 -417h-294h-1q-8 5 -20 14.5t-19 17.5q49 85 88 151q16 28 32 55t29 48t20.5 34.5l7.5 13.5h294l39 67h-133h-49.5h-43.5h-31h-13q-7 10 -10 25.5t-5 24.5h315zM442 284h-235l-138 -234h236zM501 524v-24.5t-1 -26.5h-72
q0 9 0.5 24.5t1.5 26.5h71zM324 473v24.5t1 26.5h70v-24.5t-1 -26.5h-70z" />
    <glyph glyph-name="aring" unicode="&#xe5;" horiz-adv-x="579" 
d="M540 451q8 -7 16 -13q6 -5 12.5 -11t9.5 -10l-244 -417h-294h-1q-8 5 -20 14.5t-19 17.5q49 85 88 151q16 28 32 55t29 48t20.5 34.5l7.5 13.5h294l39 67h-133h-49.5h-43.5h-31h-13q-7 10 -10 25.5t-5 24.5h315zM442 284h-235l-138 -234h236zM417 588q29 0 49 -17t20 -41
q0 -23 -20 -40t-49 -17t-49 17t-20 40q0 24 20 41t49 17zM417 510q11 0 18 6t7 14q0 9 -7 15t-18 6t-18 -6t-7 -15q0 -8 7 -14t18 -6z" />
    <glyph glyph-name="egrave" unicode="&#xe8;" horiz-adv-x="580" 
d="M539 451l16 -12q7 -5 13.5 -10.5t10.5 -9.5l-161 -274l-3 3h-289q-17 -28 -31.5 -53t-26.5 -45h132h134q-2 -8 -5.5 -24t-9.5 -26h-280l-16 12q-7 5 -13.5 11t-9.5 11q1 1 12 20t28.5 48.5t39 66.5t44.5 76t44.5 76t38 65.5t27 46.5l10.5 18h295zM509 401h-235
q-7 -13 -19.5 -34.5t-28.5 -48.5t-34.5 -58t-36.5 -62h235zM528 522q-2 -9 -5.5 -24t-7.5 -25l-201 37q2 9 6 24t7 25z" />
    <glyph glyph-name="eacute" unicode="&#xe9;" horiz-adv-x="580" 
d="M539 451l16 -12q7 -5 13.5 -10.5t10.5 -9.5l-161 -274l-3 3h-289q-17 -28 -31.5 -53t-26.5 -45h132h134q-2 -8 -5.5 -24t-9.5 -26h-280l-16 12q-7 5 -13.5 11t-9.5 11q1 1 12 20t28.5 48.5t39 66.5t44.5 76t44.5 76t38 65.5t27 46.5l10.5 18h295zM509 401h-235
q-7 -13 -19.5 -34.5t-28.5 -48.5t-34.5 -58t-36.5 -62h235zM517 559q3 -10 7 -25t6 -24l-201 -37q-4 10 -7.5 25t-5.5 24z" />
    <glyph glyph-name="ecircumflex" unicode="&#xea;" horiz-adv-x="580" 
d="M539 451l16 -12q7 -5 13.5 -10.5t10.5 -9.5l-161 -274l-3 3h-289q-17 -28 -31.5 -53t-26.5 -45h132h134q-2 -8 -5.5 -24t-9.5 -26h-280l-16 12q-7 5 -13.5 11t-9.5 11q1 1 12 20t28.5 48.5t39 66.5t44.5 76t44.5 76t38 65.5t27 46.5l10.5 18h295zM509 401h-235
q-7 -13 -19.5 -34.5t-28.5 -48.5t-34.5 -58t-36.5 -62h235zM507 522q-2 -9 -6.5 -24l-7.5 -25l-69 18l-74 -19q-2 9 -5 24t-5 26l83 20v-1v2l84 -21v0z" />
    <glyph glyph-name="edieresis" unicode="&#xeb;" horiz-adv-x="580" 
d="M539 451l16 -12q7 -5 13.5 -10.5t10.5 -9.5l-161 -274l-3 3h-289q-17 -28 -31.5 -53t-26.5 -45h132h134q-2 -8 -5.5 -24t-9.5 -26h-280l-16 12q-7 5 -13.5 11t-9.5 11q1 1 12 20t28.5 48.5t39 66.5t44.5 76t44.5 76t38 65.5t27 46.5l10.5 18h295zM509 401h-235
q-7 -13 -19.5 -34.5t-28.5 -48.5t-34.5 -58t-36.5 -62h235zM509 524v-24.5t-1 -26.5h-72q0 9 0.5 24.5t1.5 26.5h71zM332 473v24.5t1 26.5h70v-24.5t-1 -26.5h-70z" />
    <glyph glyph-name="igrave" unicode="&#xec;" horiz-adv-x="284" 
d="M246 451q7 -5 19.5 -15t18.5 -19q-1 -2 -19 -33t-45 -76.5t-58 -98t-58 -98t-45.5 -77t-19.5 -34.5q-8 5 -20 15t-19 19q1 2 19.5 33t45 76.5t58 98t58.5 98t45 77t20 34.5zM400 522q-2 -9 -5.5 -24t-7.5 -25l-201 37q2 9 6 24t7 25z" />
    <glyph glyph-name="iacute" unicode="&#xed;" horiz-adv-x="284" 
d="M246 451q7 -5 19.5 -15t18.5 -19q-1 -2 -19 -33t-45 -76.5t-58 -98t-58 -98t-45.5 -77t-19.5 -34.5q-8 5 -20 15t-19 19q1 2 19.5 33t45 76.5t58 98t58.5 98t45 77t20 34.5zM381 559q3 -10 7 -25t6 -24l-201 -37q-4 10 -7.5 25t-5.5 24z" />
    <glyph glyph-name="icircumflex" unicode="&#xee;" horiz-adv-x="284" 
d="M246 451q7 -5 19.5 -15t18.5 -19q-1 -2 -19 -33t-45 -76.5t-58 -98t-58 -98t-45.5 -77t-19.5 -34.5q-8 5 -20 15t-19 19q1 2 19.5 33t45 76.5t58 98t58.5 98t45 77t20 34.5zM369 522q-2 -9 -6.5 -24l-7.5 -25l-69 18l-74 -19q-2 9 -5 24t-5 26l83 20v-1v2l84 -21v0z" />
    <glyph glyph-name="idieresis" unicode="&#xef;" horiz-adv-x="284" 
d="M246 451q7 -5 19.5 -15t18.5 -19q-1 -2 -19 -33t-45 -76.5t-58 -98t-58 -98t-45.5 -77t-19.5 -34.5q-8 5 -20 15t-19 19q1 2 19.5 33t45 76.5t58 98t58.5 98t45 77t20 34.5zM371 524v-24.5t-1 -26.5h-72q0 9 0.5 24.5t1.5 26.5h71zM194 473v24.5t1 26.5h70v-24.5
t-1 -26.5h-70z" />
    <glyph glyph-name="ntilde" unicode="&#xf1;" horiz-adv-x="578" 
d="M539 451q8 -5 20 -15t19 -19q-1 -2 -12 -20t-28 -47t-38.5 -65.5t-44 -75t-44 -75t-39 -66t-28.5 -48t-12 -20.5q-8 5 -20 15t-18 19q1 1 12.5 21.5t30 52t42 70.5t47.5 79.5t46 77.5t38 65h-237l-236 -403q-7 5 -19 15t-19 19l257 439q5 -3 11 -8.5t13 -10.5h259v0z
M505 529q2 -8 5.5 -23.5t4.5 -25.5q-1 -1 -11 -3t-27 -3q-17 -2 -36 0t-38 5q-38 6 -64 6q-13 -1 -20.5 -2.5t-8.5 -1.5q-2 8 -4.5 23.5t-2.5 26.5q1 0 11 2t26 2q17 1 36 -1.5t38 -4.5q18 -3 34.5 -4.5t28.5 -0.5q13 1 20 3t8 2z" />
    <glyph glyph-name="oacute" unicode="&#xf3;" horiz-adv-x="575" 
d="M536 451q9 -7 16 -13q6 -5 12 -11l10 -10q-68 -117 -122 -209q-23 -39 -45 -76.5t-39 -66.5q-20 -34 -39 -65h-294q-8 6 -20 16t-18 18q1 2 19.5 33.5t46 78t58.5 100t58 99t45 76l18 30.5h294zM506 401h-235q-12 -21 -38 -65t-56 -96t-60.5 -103t-51.5 -87l235 1z
M513 559q3 -10 7 -25t6 -24l-201 -37q-4 10 -7.5 25t-5.5 24z" />
    <glyph glyph-name="ocircumflex" unicode="&#xf4;" horiz-adv-x="575" 
d="M536 451q9 -7 16 -13q6 -5 12 -11l10 -10q-68 -117 -122 -209q-23 -39 -45 -76.5t-39 -66.5q-20 -34 -39 -65h-294q-8 6 -20 16t-18 18q1 2 19.5 33.5t46 78t58.5 100t58 99t45 76l18 30.5h294zM506 401h-235q-12 -21 -38 -65t-56 -96t-60.5 -103t-51.5 -87l235 1z
M497 522q-2 -9 -6.5 -24l-7.5 -25l-69 18l-74 -19q-2 9 -5 24t-5 26l83 20v-1v2l84 -21v0z" />
    <glyph glyph-name="otilde" unicode="&#xf5;" horiz-adv-x="575" 
d="M536 451q9 -7 16 -13q6 -5 12 -11l10 -10q-68 -117 -122 -209q-23 -39 -45 -76.5t-39 -66.5q-20 -34 -39 -65h-294q-8 6 -20 16t-18 18q1 2 19.5 33.5t46 78t58.5 100t58 99t45 76l18 30.5h294zM506 401h-235q-12 -21 -38 -65t-56 -96t-60.5 -103t-51.5 -87l235 1z
M510 529q2 -8 5.5 -23.5t4.5 -25.5q-1 -1 -11 -3t-27 -3q-17 -2 -36 0t-38 5q-38 6 -64 6q-13 -1 -20.5 -2.5t-8.5 -1.5q-2 8 -4.5 23.5t-2.5 26.5q1 0 11 2t26 2q17 1 36 -1.5t38 -4.5q18 -3 34.5 -4.5t28.5 -0.5q13 1 20 3t8 2z" />
    <glyph glyph-name="odieresis" unicode="&#xf6;" horiz-adv-x="575" 
d="M536 451q9 -7 16 -13q6 -5 12 -11l10 -10q-68 -117 -122 -209q-23 -39 -45 -76.5t-39 -66.5q-20 -34 -39 -65h-294q-8 6 -20 16t-18 18q1 2 19.5 33.5t46 78t58.5 100t58 99t45 76l18 30.5h294zM506 401h-235q-12 -21 -38 -65t-56 -96t-60.5 -103t-51.5 -87l235 1z
M501 524v-24.5t-1 -26.5h-72q0 9 0.5 24.5t1.5 26.5h71zM324 473v24.5t1 26.5h70v-24.5t-1 -26.5h-70z" />
    <glyph glyph-name="oslash" unicode="&#xf8;" horiz-adv-x="575" 
d="M442 503q5 -5 14 -13t13 -17l-14 -22h81q9 -7 16 -13q6 -5 12 -11l10 -10q-68 -117 -122 -209q-23 -39 -45 -76.5t-39 -66.5q-20 -34 -39 -65h-159l-39 -62q-6 4 -14.5 13t-13.5 17l20 32h-88q-8 6 -20 16t-18 18q1 2 19.5 33.5t46 78t58.5 100t58 99t45 76l18 30.5h166
q14 23 23 36.5t11 15.5zM271 401q-12 -21 -38 -65t-56 -96t-60.5 -103t-51.5 -87h89l116 184l106 167h-105zM506 401h-82l-9 -14l-114 -180l-99 -157l98 1z" />
    <glyph glyph-name="ugrave" unicode="&#xf9;" horiz-adv-x="581" 
d="M541 449q8 -5 20 -15t19 -19q-1 -2 -19 -33t-44.5 -76t-57.5 -97.5t-58 -98t-45.5 -76.5t-19.5 -34h-298q-9 7 -16 13q-7 5 -13 10.5t-9 10.5q1 1 11.5 19.5t27.5 47t38.5 65t44 74.5t44 75t38.5 66t28 47.5t12 20.5q8 -5 20 -15t19 -19q-1 -1 -13 -21t-30.5 -51.5
t-41.5 -71t-46.5 -79.5t-45.5 -77.5t-38 -64.5h239q11 19 32.5 55.5t47 79.5t52.5 89t49 84t37 63t16 28zM523 522q-2 -9 -5.5 -24t-7.5 -25l-201 37q2 9 6 24t7 25z" />
    <glyph glyph-name="uacute" unicode="&#xfa;" horiz-adv-x="581" 
d="M541 449q8 -5 20 -15t19 -19q-1 -2 -19 -33t-44.5 -76t-57.5 -97.5t-58 -98t-45.5 -76.5t-19.5 -34h-298q-9 7 -16 13q-7 5 -13 10.5t-9 10.5q1 1 11.5 19.5t27.5 47t38.5 65t44 74.5t44 75t38.5 66t28 47.5t12 20.5q8 -5 20 -15t19 -19q-1 -1 -13 -21t-30.5 -51.5
t-41.5 -71t-46.5 -79.5t-45.5 -77.5t-38 -64.5h239q11 19 32.5 55.5t47 79.5t52.5 89t49 84t37 63t16 28zM510 559q3 -10 7 -25t6 -24l-201 -37q-4 10 -7.5 25t-5.5 24z" />
    <glyph glyph-name="ucircumflex" unicode="&#xfb;" horiz-adv-x="581" 
d="M541 449q8 -5 20 -15t19 -19q-1 -2 -19 -33t-44.5 -76t-57.5 -97.5t-58 -98t-45.5 -76.5t-19.5 -34h-298q-9 7 -16 13q-7 5 -13 10.5t-9 10.5q1 1 11.5 19.5t27.5 47t38.5 65t44 74.5t44 75t38.5 66t28 47.5t12 20.5q8 -5 20 -15t19 -19q-1 -1 -13 -21t-30.5 -51.5
t-41.5 -71t-46.5 -79.5t-45.5 -77.5t-38 -64.5h239q11 19 32.5 55.5t47 79.5t52.5 89t49 84t37 63t16 28zM497 522q-2 -9 -6.5 -24l-7.5 -25l-69 18l-74 -19q-2 9 -5 24t-5 26l83 20v-1v2l84 -21v0z" />
    <glyph glyph-name="udieresis" unicode="&#xfc;" horiz-adv-x="581" 
d="M541 449q8 -5 20 -15t19 -19q-1 -2 -19 -33t-44.5 -76t-57.5 -97.5t-58 -98t-45.5 -76.5t-19.5 -34h-298q-9 7 -16 13q-7 5 -13 10.5t-9 10.5q1 1 11.5 19.5t27.5 47t38.5 65t44 74.5t44 75t38.5 66t28 47.5t12 20.5q8 -5 20 -15t19 -19q-1 -1 -13 -21t-30.5 -51.5
t-41.5 -71t-46.5 -79.5t-45.5 -77.5t-38 -64.5h239q11 19 32.5 55.5t47 79.5t52.5 89t49 84t37 63t16 28zM502 524v-24.5t-1 -26.5h-72q0 9 0.5 24.5t1.5 26.5h71zM325 473v24.5t1 26.5h70v-24.5t-1 -26.5h-70z" />
    <glyph glyph-name="yacute" unicode="&#xfd;" horiz-adv-x="573" 
d="M246 -143q-3 3 -6 5h-289q1 8 2.5 24t3.5 26h263l52 88h-236q-9 6 -16 12q-15 12 -22 22q1 2 19.5 32.5t45 76t57 97.5t57.5 97.5t45 77t20 34.5q8 -5 20 -15t18 -19q-1 -2 -12.5 -22t-30 -51.5t-41.5 -71t-46.5 -79t-45.5 -77t-38 -64.5h235l235 400q8 -5 19.5 -15.5
t17.5 -21.5zM516 559q3 -10 7 -25t6 -24l-201 -37q-4 10 -7.5 25t-5.5 24z" />
    <glyph glyph-name="ydieresis" unicode="&#xff;" horiz-adv-x="573" 
d="M246 -143q-3 3 -6 5h-289q1 8 2.5 24t3.5 26h263l52 88h-236q-9 6 -16 12q-15 12 -22 22q1 2 19.5 32.5t45 76t57 97.5t57.5 97.5t45 77t20 34.5q8 -5 20 -15t18 -19q-1 -2 -12.5 -22t-30 -51.5t-41.5 -71t-46.5 -79t-45.5 -77t-38 -64.5h235l235 400q8 -5 19.5 -15.5
t17.5 -21.5zM501 524v-24.5t-1 -26.5h-72q0 9 0.5 24.5t1.5 26.5h71zM324 473v24.5t1 26.5h70v-24.5t-1 -26.5h-70z" />
    <glyph glyph-name="Agrave" unicode="&#xc0;" 
d="M782 700q1 0 5.5 -4.5t10 -11t10.5 -13.5t7 -13q-1 -1 -20 -33t-49 -83t-68 -115.5t-77 -131.5q-92 -158 -210 -358q-7 6 -18.5 17.5t-16.5 22.5l156 266h-298l-179 -306q-8 6 -19 17.5t-16 22.5l155 265h-35q-6 11 -9.5 26.5t-5.5 24.5h80q55 93 100 169
q19 32 37.5 63.5t33.5 57.5t25 43.5t13 22.5h-37q-7 10 -10.5 26t-5.5 25h441zM541 293q56 94 101 171q19 33 37.5 64.5t33.5 57.5t25.5 43t12.5 21h-298q-5 -8 -16 -27t-26.5 -45.5t-34 -58t-37.5 -62.5q-44 -74 -96 -164h298zM717 772q-2 -9 -5.5 -24t-7.5 -25l-201 37
q2 9 6 24t7 25z" />
    <glyph glyph-name="Aacute" unicode="&#xc1;" 
d="M782 700q1 0 5.5 -4.5t10 -11t10.5 -13.5t7 -13q-1 -1 -20 -33t-49 -83t-68 -115.5t-77 -131.5q-92 -158 -210 -358q-7 6 -18.5 17.5t-16.5 22.5l156 266h-298l-179 -306q-8 6 -19 17.5t-16 22.5l155 265h-35q-6 11 -9.5 26.5t-5.5 24.5h80q55 93 100 169
q19 32 37.5 63.5t33.5 57.5t25 43.5t13 22.5h-37q-7 10 -10.5 26t-5.5 25h441zM541 293q56 94 101 171q19 33 37.5 64.5t33.5 57.5t25.5 43t12.5 21h-298q-5 -8 -16 -27t-26.5 -45.5t-34 -58t-37.5 -62.5q-44 -74 -96 -164h298zM706 809q3 -10 7 -25t6 -24l-201 -37
q-4 10 -7.5 25t-5.5 24z" />
    <glyph glyph-name="Acircumflex" unicode="&#xc2;" 
d="M782 700q1 0 5.5 -4.5t10 -11t10.5 -13.5t7 -13q-1 -1 -20 -33t-49 -83t-68 -115.5t-77 -131.5q-92 -158 -210 -358q-7 6 -18.5 17.5t-16.5 22.5l156 266h-298l-179 -306q-8 6 -19 17.5t-16 22.5l155 265h-35q-6 11 -9.5 26.5t-5.5 24.5h80q55 93 100 169
q19 32 37.5 63.5t33.5 57.5t25 43.5t13 22.5h-37q-7 10 -10.5 26t-5.5 25h441zM541 293q56 94 101 171q19 33 37.5 64.5t33.5 57.5t25.5 43t12.5 21h-298q-5 -8 -16 -27t-26.5 -45.5t-34 -58t-37.5 -62.5q-44 -74 -96 -164h298zM693 772q-2 -9 -6.5 -24l-7.5 -25l-69 18
l-74 -19q-2 9 -5 24t-5 26l83 20v-1v2l84 -21v0z" />
    <glyph glyph-name="Atilde" unicode="&#xc3;" 
d="M782 700q1 0 5.5 -4.5t10 -11t10.5 -13.5t7 -13q-1 -1 -20 -33t-49 -83t-68 -115.5t-77 -131.5q-92 -158 -210 -358q-7 6 -18.5 17.5t-16.5 22.5l156 266h-298l-179 -306q-8 6 -19 17.5t-16 22.5l155 265h-35q-6 11 -9.5 26.5t-5.5 24.5h80q55 93 100 169
q19 32 37.5 63.5t33.5 57.5t25 43.5t13 22.5h-37q-7 10 -10.5 26t-5.5 25h441zM541 293q56 94 101 171q19 33 37.5 64.5t33.5 57.5t25.5 43t12.5 21h-298q-5 -8 -16 -27t-26.5 -45.5t-34 -58t-37.5 -62.5q-44 -74 -96 -164h298zM705 779q2 -8 5.5 -23.5t4.5 -25.5
q-1 -1 -11 -3t-27 -3q-17 -2 -36 0t-38 5q-38 6 -64 6q-13 -1 -20.5 -2.5t-8.5 -1.5q-2 8 -4.5 23.5t-2.5 26.5q1 0 11 2t26 2q17 1 36 -1.5t38 -4.5q18 -3 34.5 -4.5t28.5 -0.5q13 1 20 3t8 2z" />
    <glyph glyph-name="Adieresis" unicode="&#xc4;" 
d="M782 700q1 0 5.5 -4.5t10 -11t10.5 -13.5t7 -13q-1 -1 -20 -33t-49 -83t-68 -115.5t-77 -131.5q-92 -158 -210 -358q-7 6 -18.5 17.5t-16.5 22.5l156 266h-298l-179 -306q-8 6 -19 17.5t-16 22.5l155 265h-35q-6 11 -9.5 26.5t-5.5 24.5h80q55 93 100 169
q19 32 37.5 63.5t33.5 57.5t25 43.5t13 22.5h-37q-7 10 -10.5 26t-5.5 25h441zM541 293q56 94 101 171q19 33 37.5 64.5t33.5 57.5t25.5 43t12.5 21h-298q-5 -8 -16 -27t-26.5 -45.5t-34 -58t-37.5 -62.5q-44 -74 -96 -164h298zM698 774v-24.5t-1 -26.5h-72q0 9 0.5 24.5
t1.5 26.5h71zM521 723v24.5t1 26.5h70v-24.5t-1 -26.5h-70z" />
    <glyph glyph-name="Aring" unicode="&#xc5;" 
d="M782 700q1 0 5.5 -4.5t10 -11t10.5 -13.5t7 -13q-1 -1 -20 -33t-49 -83t-68 -115.5t-77 -131.5q-92 -158 -210 -358q-7 6 -18.5 17.5t-16.5 22.5l156 266h-298l-179 -306q-8 6 -19 17.5t-16 22.5l155 265h-35q-6 11 -9.5 26.5t-5.5 24.5h80q55 93 100 169
q19 32 37.5 63.5t33.5 57.5t25 43.5t13 22.5h-37q-7 10 -10.5 26t-5.5 25h441zM541 293q56 94 101 171q19 33 37.5 64.5t33.5 57.5t25.5 43t12.5 21h-298q-5 -8 -16 -27t-26.5 -45.5t-34 -58t-37.5 -62.5q-44 -74 -96 -164h298zM610 838q29 0 49 -17t20 -41q0 -23 -20 -40
t-49 -17t-49 17t-20 40q0 24 20 41t49 17zM610 760q11 0 18 6t7 14q0 9 -7 15t-18 6t-18 -6t-7 -15q0 -8 7 -14t18 -6z" />
    <glyph glyph-name="Egrave" unicode="&#xc8;" 
d="M447 648q-8 -14 -25.5 -43.5t-42 -70.5t-53.5 -90.5t-59 -101.5h191q-1 -9 -2.5 -24.5t-3.5 -25.5h-215l-178 -305l368 1q-1 -9 -3 -24t-6 -26h-436q-6 10 -9.5 25.5t-5.5 24.5h34l178 303h-7h-6q-2 0 -2 1q-7 10 -10 25.5t-5 24.5h59q1 1 13.5 23t32 54.5t41.5 70.5
t42 71.5t34 57.5t17 29h-48q-7 10 -10.5 26.5t-4.5 25.5h450q-1 -9 -3 -25t-6 -27h-319zM712 772q-2 -9 -5.5 -24t-7.5 -25l-201 37q2 9 6 24t7 25z" />
    <glyph glyph-name="Eacute" unicode="&#xc9;" 
d="M447 648q-8 -14 -25.5 -43.5t-42 -70.5t-53.5 -90.5t-59 -101.5h191q-1 -9 -2.5 -24.5t-3.5 -25.5h-215l-178 -305l368 1q-1 -9 -3 -24t-6 -26h-436q-6 10 -9.5 25.5t-5.5 24.5h34l178 303h-7h-6q-2 0 -2 1q-7 10 -10 25.5t-5 24.5h59q1 1 13.5 23t32 54.5t41.5 70.5
t42 71.5t34 57.5t17 29h-48q-7 10 -10.5 26.5t-4.5 25.5h450q-1 -9 -3 -25t-6 -27h-319zM700 809q3 -10 7 -25t6 -24l-201 -37q-4 10 -7.5 25t-5.5 24z" />
    <glyph glyph-name="Ecircumflex" unicode="&#xca;" horiz-adv-x="686" 
d="M447 648q-8 -14 -25.5 -43.5t-42 -70.5t-53.5 -90.5t-59 -101.5h191q-1 -9 -2.5 -24.5t-3.5 -25.5h-215l-178 -305l368 1q-1 -9 -3 -24t-6 -26h-436q-6 10 -9.5 25.5t-5.5 24.5h34l178 303h-7h-6q-2 0 -2 1q-7 10 -10 25.5t-5 24.5h59q1 1 13.5 23t32 54.5t41.5 70.5
t42 71.5t34 57.5t17 29h-48q-7 10 -10.5 26.5t-4.5 25.5h450q-1 -9 -3 -25t-6 -27h-319zM689 772q-2 -9 -6.5 -24l-7.5 -25l-69 18l-74 -19q-2 9 -5 24t-5 26l83 20v-1v2l84 -21v0z" />
    <glyph glyph-name="Edieresis" unicode="&#xcb;" 
d="M447 648q-8 -14 -25.5 -43.5t-42 -70.5t-53.5 -90.5t-59 -101.5h191q-1 -9 -2.5 -24.5t-3.5 -25.5h-215l-178 -305l368 1q-1 -9 -3 -24t-6 -26h-436q-6 10 -9.5 25.5t-5.5 24.5h34l178 303h-7h-6q-2 0 -2 1q-7 10 -10 25.5t-5 24.5h59q1 1 13.5 23t32 54.5t41.5 70.5
t42 71.5t34 57.5t17 29h-48q-7 10 -10.5 26.5t-4.5 25.5h450q-1 -9 -3 -25t-6 -27h-319zM693 774v-24.5t-1 -26.5h-72q0 9 0.5 24.5t1.5 26.5h71zM516 723v24.5t1 26.5h70v-24.5t-1 -26.5h-70z" />
    <glyph glyph-name="Igrave" unicode="&#xcc;" horiz-adv-x="326" 
d="M423 700q7 -6 18 -17.5t16 -23.5l-68 -115l-142 -243l-212 -363q-8 5 -19 17t-16 23l209 359l143 244q30 51 49.5 83t21.5 36zM231 772q-2 -9 -5.5 -24t-7.5 -25l-201 37q2 9 6 24t7 25z" />
    <glyph glyph-name="Iacute" unicode="&#xcd;" horiz-adv-x="326" 
d="M423 700q7 -6 18 -17.5t16 -23.5l-68 -115l-142 -243l-212 -363q-8 5 -19 17t-16 23l209 359l143 244q30 51 49.5 83t21.5 36zM544 809q3 -10 7 -25t6 -24l-201 -37q-4 10 -7.5 25t-5.5 24z" />
    <glyph glyph-name="Icircumflex" unicode="&#xce;" horiz-adv-x="326" 
d="M423 700q7 -6 18 -17.5t16 -23.5l-68 -115l-142 -243l-212 -363q-8 5 -19 17t-16 23l209 359l143 244q30 51 49.5 83t21.5 36zM537 772q-2 -9 -6.5 -24l-7.5 -25l-69 18l-74 -19q-2 9 -5 24t-5 26l83 20v-1v2l84 -21v0z" />
    <glyph glyph-name="Idieresis" unicode="&#xcf;" horiz-adv-x="326" 
d="M423 700q7 -6 18 -17.5t16 -23.5l-68 -115l-142 -243l-212 -363q-8 5 -19 17t-16 23l209 359l143 244q30 51 49.5 83t21.5 36zM540 774v-24.5t-1 -26.5h-72q0 9 0.5 24.5t1.5 26.5h71zM363 723v24.5t1 26.5h70v-24.5t-1 -26.5h-70z" />
    <glyph glyph-name="Eth" unicode="&#xd0;" horiz-adv-x="665" 
d="M234 390q29 50 56 95.5t48 81t34 57.5t15 25h-50q-7 10 -10.5 26t-5.5 25h439l15 -15q14 -14 19 -26q-1 -1 -19 -32.5t-47.5 -81.5t-66.5 -114t-76 -131t-76.5 -131t-67 -114.5t-48.5 -82.5t-20 -34h-429q-6 10 -9.5 26t-5.5 25h71q3 5 22 37.5t47.5 81.5t64 109.5
t71.5 122.5h-84q0 9 1.5 24.5t3.5 26.5zM342 -12q106 181 190 324q36 61 70.5 120t62 106t45.5 77.5t20 33.5h-284q-4 -6 -17.5 -29t-34.5 -58.5t-47.5 -80t-54.5 -92.5h99q0 -9 -1.5 -24.5t-3.5 -25.5q-38 0 -67.5 0.5t-55.5 0.5q-38 -65 -75 -128t-66 -113
q-34 -59 -65 -111h285z" />
    <glyph glyph-name="Ntilde" unicode="&#xd1;" horiz-adv-x="712" 
d="M809 700q8 -6 19 -17.5t16 -23.5q-1 -2 -20 -33.5t-49 -82.5t-68 -115.5t-77 -131.5l-210 -358l-6.5 2t-14.5 5t-16.5 6.5t-12.5 6.5q0 1 2 29t5 72t6.5 100.5t8 114.5t8 114t6.5 100t5 70.5t2 27.5q-8 -13 -28.5 -48t-48.5 -83t-61 -105t-67 -114q-79 -135 -175 -298
q-7 5 -18.5 17t-16.5 23q118 201 211 359q40 67 78 132t68 116t48.5 82.5t19.5 32.5q1 0 7 -1.5t13.5 -4.5t15 -7t12.5 -8q0 -1 -2 -26t-5 -65.5t-6.5 -92.5t-7.5 -107.5t-8 -110.5t-7 -101.5t-5.5 -80.5t-3.5 -47l190 324q36 61 70 119.5t61 104.5t44 74.5t18 29.5z
M737 779q2 -8 5.5 -23.5t4.5 -25.5q-1 -1 -11 -3t-27 -3q-17 -2 -36 0t-38 5q-38 6 -64 6q-13 -1 -20.5 -2.5t-8.5 -1.5q-2 8 -4.5 23.5t-2.5 26.5q1 0 11 2t26 2q17 1 36 -1.5t38 -4.5q18 -3 34.5 -4.5t28.5 -0.5q13 1 20 3t8 2z" />
    <glyph glyph-name="Ograve" unicode="&#xd2;" horiz-adv-x="714" 
d="M809 700q22 -14 35 -40l-423 -722h-386q-8 5 -19 16.5t-16 23.5q118 203 211 361q39 67 77 132t68 115.5t48 82l18 31.5h387zM392 -11q105 180 189 323q36 61 70.5 120t62 106.5t45.5 77.5t20 34l-328 -1l-387 -661zM745 772q-2 -9 -5.5 -24t-7.5 -25l-201 37q2 9 6 24
t7 25z" />
    <glyph glyph-name="Oacute" unicode="&#xd3;" horiz-adv-x="714" 
d="M809 700q22 -14 35 -40l-423 -722h-386q-8 5 -19 16.5t-16 23.5q118 203 211 361q39 67 77 132t68 115.5t48 82l18 31.5h387zM392 -11q105 180 189 323q36 61 70.5 120t62 106.5t45.5 77.5t20 34l-328 -1l-387 -661zM733 809q3 -10 7 -25t6 -24l-201 -37q-4 10 -7.5 25
t-5.5 24z" />
    <glyph glyph-name="Ocircumflex" unicode="&#xd4;" horiz-adv-x="714" 
d="M809 700q22 -14 35 -40l-423 -722h-386q-8 5 -19 16.5t-16 23.5q118 203 211 361q39 67 77 132t68 115.5t48 82l18 31.5h387zM392 -11q105 180 189 323q36 61 70.5 120t62 106.5t45.5 77.5t20 34l-328 -1l-387 -661zM721 772q-2 -9 -6.5 -24l-7.5 -25l-69 18l-74 -19
q-2 9 -5 24t-5 26l83 20v-1v2l84 -21v0z" />
    <glyph glyph-name="Otilde" unicode="&#xd5;" horiz-adv-x="714" 
d="M809 700q22 -14 35 -40l-423 -722h-386q-8 5 -19 16.5t-16 23.5q118 203 211 361q39 67 77 132t68 115.5t48 82l18 31.5h387zM392 -11q105 180 189 323q36 61 70.5 120t62 106.5t45.5 77.5t20 34l-328 -1l-387 -661zM732 779q2 -8 5.5 -23.5t4.5 -25.5q-1 -1 -11 -3
t-27 -3q-17 -2 -36 0t-38 5q-38 6 -64 6q-13 -1 -20.5 -2.5t-8.5 -1.5q-2 8 -4.5 23.5t-2.5 26.5q1 0 11 2t26 2q17 1 36 -1.5t38 -4.5q18 -3 34.5 -4.5t28.5 -0.5q13 1 20 3t8 2z" />
    <glyph glyph-name="Odieresis" unicode="&#xd6;" horiz-adv-x="714" 
d="M809 700q22 -14 35 -40l-423 -722h-386q-8 5 -19 16.5t-16 23.5q118 203 211 361q39 67 77 132t68 115.5t48 82l18 31.5h387zM392 -11q105 180 189 323q36 61 70.5 120t62 106.5t45.5 77.5t20 34l-328 -1l-387 -661zM728 774v-24.5t-1 -26.5h-72q0 9 0.5 24.5t1.5 26.5
h71zM551 723v24.5t1 26.5h70v-24.5t-1 -26.5h-70z" />
    <glyph glyph-name="Ugrave" unicode="&#xd9;" horiz-adv-x="713" 
d="M809 700q7 -5 18 -17t16 -23l-423 -722h-386q-8 7 -15 14q-6 6 -12 13t-8 13q118 201 210 359q39 67 77 132t68 116t48.5 82.5t19.5 32.5q7 -6 18 -17.5t16 -23.5l-393 -671l329 1q115 198 207 354q39 66 76.5 130t67 114t47.5 81t19 32zM747 772q-2 -9 -5.5 -24
t-7.5 -25l-201 37q2 9 6 24t7 25z" />
    <glyph glyph-name="Oslash" unicode="&#xd8;" horiz-adv-x="712" 
d="M809 700q22 -14 35 -40l-423 -722h-194l-2 -4q-2 1 -3 2t-3 2h-184q-8 5 -19 16.5t-16 23.5q118 203 211 361q39 67 77 132t68 115.5t48 82l18 31.5h387zM392 -11q105 180 189 323q36 61 70.5 120t62 106.5t45.5 77.5t20 34l-135 -1l-65 -109l-142 -243l-180 -308h135z
M64 -12l134 1l201 344l143 244q12 21 23 39.5t20 32.5h-134z" />
    <glyph glyph-name="Uacute" unicode="&#xda;" horiz-adv-x="713" 
d="M809 700q7 -5 18 -17t16 -23l-423 -722h-386q-8 7 -15 14q-6 6 -12 13t-8 13q118 201 210 359q39 67 77 132t68 116t48.5 82.5t19.5 32.5q7 -6 18 -17.5t16 -23.5l-393 -671l329 1q115 198 207 354q39 66 76.5 130t67 114t47.5 81t19 32zM733 809q3 -10 7 -25t6 -24
l-201 -37q-4 10 -7.5 25t-5.5 24z" />
    <glyph glyph-name="Ucircumflex" unicode="&#xdb;" horiz-adv-x="713" 
d="M809 700q7 -5 18 -17t16 -23l-423 -722h-386q-8 7 -15 14q-6 6 -12 13t-8 13q118 201 210 359q39 67 77 132t68 116t48.5 82.5t19.5 32.5q7 -6 18 -17.5t16 -23.5l-393 -671l329 1q115 198 207 354q39 66 76.5 130t67 114t47.5 81t19 32zM720 772q-2 -9 -6.5 -24
l-7.5 -25l-69 18l-74 -19q-2 9 -5 24t-5 26l83 20v-1v2l84 -21v0z" />
    <glyph glyph-name="Udieresis" unicode="&#xdc;" horiz-adv-x="713" 
d="M809 700q7 -5 18 -17t16 -23l-423 -722h-386q-8 7 -15 14q-6 6 -12 13t-8 13q118 201 210 359q39 67 77 132t68 116t48.5 82.5t19.5 32.5q7 -6 18 -17.5t16 -23.5l-393 -671l329 1q115 198 207 354q39 66 76.5 130t67 114t47.5 81t19 32zM727 774v-24.5t-1 -26.5h-72
q0 9 0.5 24.5t1.5 26.5h71zM550 723v24.5t1 26.5h70v-24.5t-1 -26.5h-70z" />
    <glyph glyph-name="Yacute" unicode="&#xdd;" horiz-adv-x="585" 
d="M681 701q7 -5 19 -16t17 -21l-144 -248q-27 -47 -53.5 -92t-47.5 -80.5t-34 -58t-14 -24.5h-188l-130 -223q-8 5 -20.5 14t-20.5 16l112 193h-139l-5 3.5t-11 9t-12.5 11.5t-9.5 11q1 1 13.5 23t33.5 57.5t47 80.5t53.5 92t54 92t47 80t33.5 57t13 23q7 -6 19 -16.5
t18 -20.5q-67 -114 -122 -208q-24 -40 -47 -80t-42.5 -73.5t-34 -58t-19.5 -33.5h328q4 7 18.5 31.5t35 60t45.5 78.5t51 87t50 86t43 74t30.5 52t12.5 21zM604 809q3 -10 7 -25t6 -24l-201 -37q-4 10 -7.5 25t-5.5 24z" />
    <glyph glyph-name="Ydieresis" unicode="&#x178;" horiz-adv-x="585" 
d="M681 701q7 -5 19 -16t17 -21l-144 -248q-27 -47 -53.5 -92t-47.5 -80.5t-34 -58t-14 -24.5h-188l-130 -223q-8 5 -20.5 14t-20.5 16l112 193h-139l-5 3.5t-11 9t-12.5 11.5t-9.5 11q1 1 13.5 23t33.5 57.5t47 80.5t53.5 92t54 92t47 80t33.5 57t13 23q7 -6 19 -16.5
t18 -20.5q-67 -114 -122 -208q-24 -40 -47 -80t-42.5 -73.5t-34 -58t-19.5 -33.5h328q4 7 18.5 31.5t35 60t45.5 78.5t51 87t50 86t43 74t30.5 52t12.5 21zM599 774v-24.5t-1 -26.5h-72q0 9 0.5 24.5t1.5 26.5h71zM422 723v24.5t1 26.5h70v-24.5t-1 -26.5h-70z" />
    <glyph glyph-name="exclamdown" unicode="&#xa1;" horiz-adv-x="399" 
d="M-17.9785 -352.96q-6.99902 4.99902 -18.998 15.499q-12 10.499 -17.999 20.498q2 2 15.499 24.499q13.499 22.498 34.998 58.4961q21.498 35.998 47.9971 81.4951q26.498 45.4971 54.4961 92.4941l152.991 261.984q6.99902 -5 18.998 -15.499q12 -10.499 17.999 -20.499
l-150.99 -258.984q-27.998 -47.9971 -54.9971 -93.4941q-26.998 -45.4971 -48.4971 -81.9951q-21.498 -36.4971 -35.4971 -59.4961q-14 -22.999 -16 -24.998zM263.005 219.005l43.9971 76.9951q7 -5 18.499 -15.999t17.499 -21.999l-22.999 -38.9971h-56.9961z" />
    <glyph glyph-name="ograve" unicode="&#xf2;" horiz-adv-x="575" 
d="M536 451q9 -7 16 -13q6 -5 12 -11l10 -10q-68 -117 -122 -209q-23 -39 -45 -76.5t-39 -66.5q-20 -34 -39 -65h-294q-8 6 -20 16t-18 18q1 2 19.5 33.5t46 78t58.5 100t58 99t45 76l18 30.5h294zM506 401h-235q-12 -21 -38 -65t-56 -96t-60.5 -103t-51.5 -87l235 1z
M529 522q-2 -9 -5.5 -24t-7.5 -25l-201 37q2 9 6 24t7 25z" />
    <glyph glyph-name="questiondown" unicode="&#xbf;" horiz-adv-x="551" 
d="M-65.959 -362.96q1 9 2.5 24.499t4.5 26.498h5q4.99902 8 15.499 25.498q10.499 17.499 24.498 41.498q13.999 23.998 30.998 52.4971q16.999 28.498 33.998 58.4961l108.993 185.988h129.992l87.9951 151.991q7.99902 -5 20.998 -13.499q12.999 -8.5 20.999 -15.499
l-101.994 -172.99l-127.992 -0.999023l-97.9941 -166.99q-24.998 -41.9971 -48.4961 -80.9951q-23.499 -38.998 -39.498 -65.9961h96.9941h127.992l116.993 204.987q6.99902 -5.99902 18.498 -16.499q11.5 -10.499 17.499 -21.498q-33.998 -57.9971 -60.9961 -104.994
q-11.999 -19.998 -22.998 -39.4971q-11 -19.499 -20.499 -34.998t-15.499 -25.998q-6 -10.5 -7 -12.5h-158.99h-58.4961t-50.9971 0.5t-36.498 0.5h-15.999zM390.014 221.005l43.9971 76.9951q7 -5 18.999 -15.999t16.999 -21.999l-22.999 -38.9971h-56.9961z" />
    <glyph glyph-name="underscore" unicode="_" horiz-adv-x="0" 
d="M-249 -53q0 -9 -1.5 -24.5t-3.5 -25.5q-37 0 -105.5 0.5t-155.5 0.5t-186 0.5t-197 0.5h-188t-159 -0.5t-110 -0.5h-42q0 9 1.5 24.5t3.5 26.5z" />
    <glyph glyph-name="B" unicode="B" 
d="M815 660q-43 -72 -84 -142q-18 -30 -37 -62.5l-38 -65t-37 -63.5t-34 -58q-5 -1 -16 -2t-19 -2q6 -5 13.5 -10t9.5 -7q-34 -58 -66 -113.5t-58 -99.5q-30 -51 -56 -97h-436q-7 10 -10 26t-5 25h58q105 180 189 323q36 61 70.5 120t62 106.5t45.5 77.5t20 34h-27
q-6 10 -9.5 25.5t-5.5 24.5h435l4.5 -4t10.5 -10t11.5 -13t8.5 -13zM512 243h-305l-149 -254h306zM567 338q48 82 87 149q16 28 32.5 56t30 50.5l22.5 37.5t11 19h-305l-209 -357l305 1z" />
    <glyph glyph-name="A" unicode="A" 
d="M782 700q1 0 5.5 -4.5t10 -11t10.5 -13.5t7 -13q-1 -1 -20 -33t-49 -83t-68 -115.5t-77 -131.5q-92 -158 -210 -358q-7 6 -18.5 17.5t-16.5 22.5l156 266h-298l-179 -306q-8 6 -19 17.5t-16 22.5l155 265h-35q-6 11 -9.5 26.5t-5.5 24.5h80q55 93 100 169
q19 32 37.5 63.5t33.5 57.5t25 43.5t13 22.5h-37q-7 10 -10.5 26t-5.5 25h441zM541 293q56 94 101 171q19 33 37.5 64.5t33.5 57.5t25.5 43t12.5 21h-298q-5 -8 -16 -27t-26.5 -45.5t-34 -58t-37.5 -62.5q-44 -74 -96 -164h298z" />
    <glyph glyph-name="f" unicode="f" horiz-adv-x="510" 
d="M390 603q-11 -17 -34.5 -57t-54.5 -92h223q-2 -9 -5 -25t-10 -26h-237q-3 -6 -17 -29.5t-34.5 -58t-45 -76.5t-49.5 -85q-60 -101 -133 -227q-8 5 -19.5 16t-16.5 22l404 688h286q-1 -9 -4.5 -24.5t-10.5 -25.5h-242z" />
    </font>
</defs>
</svg>
